<svg width="208" height="208" viewBox="0 0 208 208" fill="none" xmlns="http://www.w3.org/2000/svg">
    <g clip-path="url(#clip0_924_29561)">
    <path d="M0 46.9019V208H104L108.078 132.055L104 46.9019L53.0196 42.8235L0 46.9019Z" fill="#FFF5F5"/>
    <path d="M208 46.9019L157.563 42.8235L104 46.9019V208H208V46.9019Z" fill="#ECE6F2"/>
    <path d="M122.353 73.4117H183.529V85.647H122.353V73.4117Z" fill="#4793FF"/>
    <path d="M24.4706 73.4117H48.9412V85.647H24.4706V73.4117Z" fill="#2DE6A8"/>
    <path d="M24.4706 97.8823H48.9412V110.118H24.4706V97.8823Z" fill="#FFDF40"/>
    <path d="M82.3709 162.335C71.9256 151.89 70.6295 135.708 78.4805 123.838L104 149.357L108.078 140.706L104 132.054L87.132 115.186C92.2256 111.818 98.1124 110.132 104 110.132L108.078 104L104 97.9023C93.0339 97.9023 82.0678 102.077 73.7193 110.425C57.0226 127.122 57.0226 154.29 73.7193 170.987C82.0678 179.335 93.0335 183.509 104 183.509L108.078 177.616L104 171.274C96.167 171.274 88.3339 168.298 82.3709 162.335Z" fill="#FD7C50"/>
    <path d="M134.281 110.425C125.932 102.077 114.966 97.9023 104 97.9023V110.132C111.833 110.132 119.666 113.114 125.629 119.077C136.074 129.522 137.371 145.704 129.52 157.574L104 132.054V149.357L120.868 166.225C115.775 169.594 109.887 171.274 104 171.274V183.509C114.966 183.509 125.932 179.335 134.281 170.987C150.977 154.29 150.977 127.122 134.281 110.425Z" fill="#FD445F"/>
    <path d="M0 0V46.902H104L108.078 26.2378L104 0H0Z" fill="#4D5E80"/>
    <path d="M208 0H104V46.902H208V30.5882L203.922 24.4706L208 18.3529V0Z" fill="#464F75"/>
    <path d="M24.4706 18.3529H36.7059V30.5882H24.4706V18.3529Z" fill="#2DE6A8"/>
    <path d="M48.9412 18.3529H61.1765V30.5882H48.9412V18.3529Z" fill="#FFBE40"/>
    <path d="M122.353 18.3529H208V30.5882H122.353V18.3529Z" fill="#FD445F"/>
    </g>
    <defs>
    <clipPath id="clip0_924_29561">
    <rect width="208" height="208" fill="white"/>
    </clipPath>
    </defs>
    </svg>
    