<svg width="19" height="19" viewBox="0 0 19 19" fill="none" xmlns="http://www.w3.org/2000/svg">
    <g clip-path="url(#clip0_903_40951)">
    <path d="M9.5 0C4.26138 0 0 4.26138 0 9.5C0 14.7386 4.26138 19 9.5 19C14.7386 19 19 14.7379 19 9.5C19 4.26212 14.7386 0 9.5 0ZM9.5 17.5283C5.07378 17.5283 1.47172 13.927 1.47172 9.5C1.47172 5.07304 5.07378 1.47172 9.5 1.47172C13.9262 1.47172 17.5283 5.07304 17.5283 9.5C17.5283 13.927 13.927 17.5283 9.5 17.5283Z" fill="#CF2D39"/>
    <path d="M13.1795 8.69791H10.236V5.75446C10.236 5.34826 9.9071 5.01859 9.50016 5.01859C9.09322 5.01859 8.76428 5.34826 8.76428 5.75446V8.69791H5.82084C5.4139 8.69791 5.08496 9.02759 5.08496 9.43378C5.08496 9.83998 5.4139 10.1697 5.82084 10.1697H8.76428V13.1131C8.76428 13.5193 9.09322 13.849 9.50016 13.849C9.9071 13.849 10.236 13.5193 10.236 13.1131V10.1697H13.1795C13.5864 10.1697 13.9154 9.83998 13.9154 9.43378C13.9154 9.02759 13.5864 8.69791 13.1795 8.69791Z" fill="#CF2D39"/>
    </g>
    <defs>
    <clipPath id="clip0_903_40951">
    <rect width="19" height="19" fill="white"/>
    </clipPath>
    </defs>
    </svg>
    