<svg width="185" height="185" viewBox="0 0 185 185" fill="none" xmlns="http://www.w3.org/2000/svg">
<path d="M49.5424 33.7043C48.9168 33.8202 47.5266 34.3299 46.4608 34.8397C42.9853 36.5079 40.4597 39.6591 39.4634 43.5053C39 45.2894 39 46.1004 39 84.5166C39 122.933 39 123.744 39.4634 125.528C40.5987 130 43.7035 133.313 48.2681 134.958L49.7741 135.491L66.8042 135.56L83.8343 135.63L85.0392 137.437C88.5379 142.627 94.2841 147.192 100.355 149.602C114.512 155.255 130.847 150.667 140.022 138.434C149.035 126.408 149.174 110.143 140.323 98.048C135.782 91.792 128.391 86.8336 121.092 85.0958L119.864 84.8178V73.4412C119.841 65.0768 119.771 61.8793 119.563 61.4159C119.169 60.5354 93.7743 33.9129 93.0561 33.6348C92.3146 33.3568 51.0948 33.4031 49.5424 33.7043ZM89.7427 47.3284C89.8817 56.8977 89.9049 57.1062 91.1793 59.3074C92.4768 61.6012 94.4926 63.2463 97.2962 64.289C98.5706 64.7524 99.173 64.7987 106.842 64.8914L114.998 64.9841V74.5534V84.1227L112.334 84.1458C104.966 84.1922 97.1572 86.9958 91.5732 91.6066L90.5073 92.4871L74.2419 92.5566L57.9532 92.6261L57.2813 93.3907C55.9606 94.8736 56.6093 96.9358 58.5788 97.376C59.0886 97.4919 65.3677 97.6077 72.5504 97.6077C79.71 97.6077 85.5721 97.6541 85.5721 97.7236C85.5721 97.7699 84.9697 98.7431 84.2514 99.8552C83.5331 100.967 82.5831 102.659 82.1661 103.586L81.3783 105.254H69.6773H57.9532L57.2813 105.926C56.3313 106.876 56.3313 108.196 57.2813 109.239L57.9532 110.004L68.8895 110.073L79.8259 110.143L79.71 110.653C79.1771 112.831 78.9918 114.684 78.9918 117.882C79.0149 122.539 79.432 125.064 81.1002 130.116C81.2161 130.509 80.4746 130.509 65.6226 130.463L50.0058 130.394L48.7315 129.768C46.2059 128.517 44.5608 126.269 44.0974 123.396C43.7962 121.589 43.7962 47.4443 44.0974 45.637C44.6999 41.9297 47.3644 39.1262 50.8631 38.5469C51.5351 38.431 60.5483 38.3615 70.859 38.3847L89.6269 38.4079L89.7427 47.3284ZM104.131 52.0783L111.384 59.7245L105.429 59.794C99.7754 59.8403 99.4047 59.8171 98.3157 59.3537C97.6901 59.0757 96.7633 58.4038 96.2535 57.8708C94.7475 56.2489 94.6085 55.3916 94.6085 48.2784V42.1151L95.7438 43.2736C96.3694 43.9224 100.146 47.8613 104.131 52.0783ZM116.412 89.2896C123.224 90.1701 129.155 93.159 133.882 98.0943C144.471 109.17 144.563 126.594 134.09 137.924C132.793 139.314 129.989 141.608 128.089 142.836C121.046 147.331 111.059 148.327 102.903 145.315C94.2609 142.141 87.5879 134.958 85.016 126.084C84.1355 122.979 83.8807 120.662 84.0197 116.862C84.2977 109.517 86.8928 103.377 91.9439 98.0943C98.3157 91.3981 107.445 88.1311 116.412 89.2896Z" fill="#CF2D39"/>
<path d="M57.3273 80.9482C56.0529 82.2226 56.47 84.2384 58.1614 84.8871C58.4858 85.003 64.1393 85.0957 71.577 85.0957C85.734 85.0957 85.4096 85.1189 86.1742 83.6823C86.6839 82.686 86.4291 81.5738 85.5486 80.8324L84.8303 80.2299H71.438H58.0456L57.3273 80.9482Z" fill="#CF2D39"/>
<path d="M111.825 99.3916C111.153 99.7623 97.2736 114.429 96.37 115.727C96.1615 116.005 95.9993 116.653 95.9993 117.14C95.9993 118.924 97.9224 119.967 99.637 119.109C99.915 118.97 102.417 116.422 105.198 113.433L110.249 108.011L110.365 121.751C110.457 132.316 110.55 135.607 110.782 136C111.129 136.603 112.195 137.229 112.914 137.229C113.632 137.229 114.698 136.603 115.045 136C115.277 135.607 115.37 132.316 115.462 121.728L115.578 107.988L120.676 113.479C123.78 116.862 126.051 119.109 126.514 119.295C128.484 120.129 130.569 117.858 129.527 115.981C129.248 115.495 115.926 101.106 114.605 99.9013C113.724 99.0672 112.751 98.8818 111.825 99.3916Z" fill="#CF2D39"/>
<circle cx="92.5" cy="92.5" r="90" stroke="#CF2D39" stroke-width="5"/>
</svg>
