<svg width="20" height="25" viewBox="0 0 20 25" fill="none" xmlns="http://www.w3.org/2000/svg">
<path d="M19.7622 22.4866L18.4357 6.08979C18.3991 5.63687 18.0209 5.28803 17.5665 5.28803H14.9628V5.07759C14.9628 2.2779 12.6849 0 9.88488 0C7.08489 0 4.80699 2.2779 4.80699 5.07789V5.28834H2.20322C1.74889 5.28834 1.37066 5.63717 1.33402 6.09009L0.00754703 22.4866C-0.0447732 23.1323 0.176753 23.7753 0.615706 24.2509C1.05496 24.727 1.6782 25 2.32557 25H17.4442C18.0919 25 18.7149 24.727 19.1541 24.2509C19.593 23.775 19.8142 23.132 19.7622 22.4866ZM6.55117 5.07789C6.55117 3.2398 8.04679 1.74418 9.88488 1.74418C11.723 1.74418 13.2186 3.2398 13.2186 5.07789V5.28834H6.55117V5.07789ZM17.8718 23.0683C17.8073 23.1386 17.666 23.2558 17.4442 23.2558H2.32557C2.1038 23.2558 1.96247 23.1387 1.89796 23.0683C1.83344 22.9985 1.72819 22.8482 1.74621 22.6273L3.00781 7.03226H4.80694V11.3555C4.80694 11.8372 5.19737 12.2276 5.67903 12.2276C6.16069 12.2276 6.55111 11.8372 6.55111 11.3555V7.03226H13.2185V11.3555C13.2185 11.8372 13.609 12.2276 14.0906 12.2276C14.5723 12.2276 14.9627 11.8372 14.9627 11.3555V7.03226H16.7619L18.0235 22.6276C18.0416 22.8485 17.9361 22.9985 17.8718 23.0683Z" fill="black"/>
</svg>
