<svg width="50" height="50" viewBox="0 0 50 50" fill="none" xmlns="http://www.w3.org/2000/svg">
<path d="M42.5781 0H7.42188C4.99873 0 3.02734 1.97139 3.02734 4.39453V45.6055C3.02734 48.0286 4.99873 50 7.42188 50H42.5781C45.0013 50 46.9727 48.0286 46.9727 45.6055V4.39453C46.9727 1.97139 45.0013 0 42.5781 0ZM44.043 45.6055C44.043 46.4132 43.3858 47.0703 42.5781 47.0703H7.42188C6.61416 47.0703 5.95703 46.4132 5.95703 45.6055V4.39453C5.95703 3.58682 6.61416 2.92969 7.42188 2.92969H42.5781C43.3858 2.92969 44.043 3.58682 44.043 4.39453V45.6055Z" fill="black" fillOpacity="0.5"/>
<path d="M39.6484 5.85938H10.3516C9.54258 5.85938 8.88672 6.51523 8.88672 7.32422V19.2383C8.88672 20.0473 9.54258 20.7031 10.3516 20.7031H39.6484C40.4574 20.7031 41.1133 20.0473 41.1133 19.2383V7.32422C41.1133 6.51523 40.4574 5.85938 39.6484 5.85938ZM38.1836 17.7734H11.8164V8.78906H38.1836V17.7734Z" fill="black" fillOpacity="0.5"/>
<path d="M16.2109 23.6328H10.3516C9.54258 23.6328 8.88672 24.2887 8.88672 25.0977V30.957C8.88672 31.766 9.54258 32.4219 10.3516 32.4219H16.2109C17.0199 32.4219 17.6758 31.766 17.6758 30.957V25.0977C17.6758 24.2887 17.0199 23.6328 16.2109 23.6328ZM14.7461 29.4922H11.8164V26.5625H14.7461V29.4922Z" fill="black" fillOpacity="0.5"/>
<path d="M16.2109 35.3516H10.3516C9.54258 35.3516 8.88672 36.0074 8.88672 36.8164V42.6758C8.88672 43.4848 9.54258 44.1406 10.3516 44.1406H16.2109C17.0199 44.1406 17.6758 43.4848 17.6758 42.6758V36.8164C17.6758 36.0074 17.0199 35.3516 16.2109 35.3516ZM14.7461 41.2109H11.8164V38.2812H14.7461V41.2109Z" fill="black" fillOpacity="0.5"/>
<path d="M27.9297 23.6328H22.0703C21.2613 23.6328 20.6055 24.2887 20.6055 25.0977V30.957C20.6055 31.766 21.2613 32.4219 22.0703 32.4219H27.9297C28.7387 32.4219 29.3945 31.766 29.3945 30.957V25.0977C29.3945 24.2887 28.7387 23.6328 27.9297 23.6328ZM26.4648 29.4922H23.5352V26.5625H26.4648V29.4922Z" fill="black" fillOpacity="0.5"/>
<path d="M27.9297 35.3516H22.0703C21.2613 35.3516 20.6055 36.0074 20.6055 36.8164V42.6758C20.6055 43.4848 21.2613 44.1406 22.0703 44.1406H27.9297C28.7387 44.1406 29.3945 43.4848 29.3945 42.6758V36.8164C29.3945 36.0074 28.7387 35.3516 27.9297 35.3516ZM26.4648 41.2109H23.5352V38.2812H26.4648V41.2109Z" fill="black" fillOpacity="0.5"/>
<path d="M39.6484 23.6328H33.7891C32.9801 23.6328 32.3242 24.2887 32.3242 25.0977V42.6758C32.3242 43.4848 32.9801 44.1406 33.7891 44.1406H39.6484C40.4574 44.1406 41.1133 43.4848 41.1133 42.6758V25.0977C41.1133 24.2887 40.4574 23.6328 39.6484 23.6328ZM38.1836 41.2109H35.2539V26.5625H38.1836V41.2109Z" fill="black" fillOpacity="0.5"/>
</svg>
 