<svg width="24" height="24" viewBox="0 0 24 24" fill="none" xmlns="http://www.w3.org/2000/svg">
<g clip-path="url(#clip0_759_32515)">
<path d="M3.62754 24H20.3742C22.1298 24 23.5564 22.5733 23.5564 20.8178V4.95998C23.5564 3.20442 22.1298 1.77774 20.3742 1.77774H19.112V0.888872C19.112 0.399978 18.712 0 18.2231 0C17.7342 0 17.3342 0.399978 17.3342 0.888872V1.77774H6.66757V0.888872C6.66757 0.399978 6.26752 0 5.77862 0C5.28973 0 4.88975 0.399978 4.88975 0.888872V1.77774H3.62754C1.87199 1.77774 0.445312 3.20442 0.445312 4.95998V20.8178C0.445312 22.5733 1.87199 24 3.62754 24ZM2.22313 4.95998C2.22313 4.18667 2.85423 3.55556 3.62754 3.55556H4.88975V4.44444C4.88975 4.93333 5.28973 5.33331 5.77862 5.33331C6.26752 5.33331 6.66749 4.93333 6.66749 4.44444V3.55556H17.3342V4.44444C17.3342 4.93333 17.7342 5.33331 18.2231 5.33331C18.712 5.33331 19.1119 4.93333 19.1119 4.44444V3.55556H20.3741C21.1474 3.55556 21.7785 4.18667 21.7785 4.95998V20.8178C21.7785 21.5911 21.1474 22.2222 20.3741 22.2222H3.62754C2.85423 22.2222 2.22313 21.5911 2.22313 20.8178V4.95998Z" fill="#CF2D39"/>
<path d="M6.89039 10.2222C7.50403 10.2222 8.00148 9.72473 8.00148 9.11109C8.00148 8.49745 7.50403 8 6.89039 8C6.27675 8 5.7793 8.49745 5.7793 9.11109C5.7793 9.72473 6.27675 10.2222 6.89039 10.2222Z" fill="#CF2D39"/>
<path d="M11.7791 10.2222C12.3927 10.2222 12.8902 9.72473 12.8902 9.11109C12.8902 8.49745 12.3927 8 11.7791 8C11.1654 8 10.668 8.49745 10.668 9.11109C10.668 9.72473 11.1654 10.2222 11.7791 10.2222Z" fill="#CF2D39"/>
<path d="M16.6677 10.2222C17.2814 10.2222 17.7788 9.72473 17.7788 9.11109C17.7788 8.49745 17.2814 8 16.6677 8C16.0541 8 15.5566 8.49745 15.5566 9.11109C15.5566 9.72473 16.0541 10.2222 16.6677 10.2222Z" fill="#CF2D39"/>
<path d="M6.89039 14.6665C7.50403 14.6665 8.00148 14.1691 8.00148 13.5554C8.00148 12.9418 7.50403 12.4443 6.89039 12.4443C6.27675 12.4443 5.7793 12.9418 5.7793 13.5554C5.7793 14.1691 6.27675 14.6665 6.89039 14.6665Z" fill="#CF2D39"/>
<path d="M11.7791 14.6665C12.3927 14.6665 12.8902 14.1691 12.8902 13.5554C12.8902 12.9418 12.3927 12.4443 11.7791 12.4443C11.1654 12.4443 10.668 12.9418 10.668 13.5554C10.668 14.1691 11.1654 14.6665 11.7791 14.6665Z" fill="#CF2D39"/>
<path d="M16.6677 14.6666C17.2814 14.6666 17.7788 14.1692 17.7788 13.5555C17.7788 12.9419 17.2814 12.4445 16.6677 12.4445C16.0541 12.4445 15.5566 12.9419 15.5566 13.5555C15.5566 14.1692 16.0541 14.6666 16.6677 14.6666Z" fill="#CF2D39"/>
<path d="M6.89039 19.1109C7.50403 19.1109 8.00148 18.6134 8.00148 17.9998C8.00148 17.3861 7.50403 16.8887 6.89039 16.8887C6.27675 16.8887 5.7793 17.3861 5.7793 17.9998C5.7793 18.6134 6.27675 19.1109 6.89039 19.1109Z" fill="#CF2D39"/>
<path d="M11.7791 19.1109C12.3927 19.1109 12.8902 18.6134 12.8902 17.9998C12.8902 17.3861 12.3927 16.8887 11.7791 16.8887C11.1654 16.8887 10.668 17.3861 10.668 17.9998C10.668 18.6134 11.1654 19.1109 11.7791 19.1109Z" fill="#CF2D39"/>
<path d="M16.6677 19.111C17.2814 19.111 17.7788 18.6136 17.7788 17.9999C17.7788 17.3863 17.2814 16.8889 16.6677 16.8889C16.0541 16.8889 15.5566 17.3863 15.5566 17.9999C15.5566 18.6136 16.0541 19.111 16.6677 19.111Z" fill="#CF2D39"/>
</g>
<defs>
<clipPath id="clip0_759_32515">
<rect width="24" height="24" fill="#CF2D39"/>
</clipPath>
</defs>
</svg>
 