<svg width="16" height="16" viewBox="0 0 26 26" fill="none" xmlns="http://www.w3.org/2000/svg">
<path d="M1.26975 25.9997C1.01863 25.9997 0.773134 25.9253 0.564321 25.7858C0.355507 25.6463 0.192755 25.448 0.0966494 25.216C0.000543815 24.984 -0.0245971 24.7287 0.0244068 24.4824C0.0734106 24.2362 0.194358 24.0099 0.371949 23.8324L23.8325 0.371879C24.0706 0.133769 24.3935 0 24.7303 0C25.067 0 25.3899 0.133769 25.628 0.371879C25.8662 0.60999 25.9999 0.932936 25.9999 1.26968C25.9999 1.60641 25.8662 1.92936 25.628 2.16747L2.16754 25.628C2.04975 25.746 1.9098 25.8396 1.75573 25.9034C1.60166 25.9672 1.4365 25.9999 1.26975 25.9997Z" fill="black"/>
<path d="M24.7302 25.9997C24.5635 25.9999 24.3983 25.9672 24.2443 25.9034C24.0902 25.8396 23.9502 25.746 23.8324 25.628L0.37194 2.16747C0.13383 1.92936 6.10352e-05 1.60641 6.10352e-05 1.26968C6.10352e-05 0.932936 0.13383 0.60999 0.37194 0.371879C0.610051 0.133769 0.932998 0 1.26974 0C1.60648 0 1.92942 0.133769 2.16753 0.371879L25.628 23.8324C25.8056 24.0099 25.9266 24.2362 25.9756 24.4824C26.0246 24.7287 25.9994 24.984 25.9033 25.216C25.8072 25.448 25.6445 25.6463 25.4357 25.7858C25.2269 25.9253 24.9814 25.9997 24.7302 25.9997Z" fill="black"/>
</svg>
