<svg width="15" height="15" viewBox="0 0 16 16" fill="none" xmlns="http://www.w3.org/2000/svg">
<path d="M0.781382 15.9998C0.626847 15.9998 0.475774 15.954 0.347274 15.8682C0.218774 15.7823 0.118618 15.6603 0.0594765 15.5176C0.000334655 15.3748 -0.0151367 15.2177 0.0150195 15.0661C0.0451757 14.9146 0.119605 14.7753 0.228892 14.6661L14.6661 0.228849C14.8127 0.0823194 15.0114 0 15.2186 0C15.4258 0 15.6246 0.0823194 15.7711 0.228849C15.9176 0.375378 16 0.574115 16 0.781339C16 0.988562 15.9176 1.1873 15.7711 1.33383L1.33387 15.7711C1.26138 15.8437 1.17526 15.9013 1.08045 15.9406C0.985634 15.9798 0.884 15.9999 0.781382 15.9998Z" fill="black"/>
<path d="M15.2186 15.9998C15.116 15.9999 15.0144 15.9798 14.9196 15.9406C14.8248 15.9013 14.7386 15.8437 14.6661 15.7711L0.22891 1.33383C0.0823804 1.1873 6.10352e-05 0.988562 6.10352e-05 0.781339C6.10352e-05 0.574115 0.0823804 0.375378 0.22891 0.228849C0.375439 0.0823194 0.574176 0 0.7814 0C0.988623 0 1.18736 0.0823194 1.33389 0.228849L15.7711 14.6661C15.8804 14.7753 15.9548 14.9146 15.985 15.0661C16.0152 15.2177 15.9997 15.3748 15.9405 15.5176C15.8814 15.6603 15.7812 15.7823 15.6527 15.8682C15.5242 15.954 15.3732 15.9998 15.2186 15.9998Z" fill="black"/>
</svg>
