<svg width="20" height="20" viewBox="0 0 20 20" fill="none" xmlns="http://www.w3.org/2000/svg">
<path fill-rule="evenodd" clipRule="evenodd" d="M16.2503 1.66666H12.917C11.7664 1.66666 10.8337 2.5994 10.8337 3.74999V7.08332C10.8337 8.23392 11.7664 9.16666 12.917 9.16666H16.2503C17.4009 9.16666 18.3337 8.23392 18.3337 7.08332V3.74999C18.3337 2.5994 17.4009 1.66666 16.2503 1.66666ZM12.5003 3.74999C12.5003 3.51987 12.6869 3.33332 12.917 3.33332H16.2503C16.4804 3.33332 16.667 3.51987 16.667 3.74999V7.08332C16.667 7.31344 16.4804 7.49999 16.2503 7.49999H12.917C12.6869 7.49999 12.5003 7.31344 12.5003 7.08332V3.74999ZM3.94385 2.44944L2.44978 3.94352C1.63618 4.75711 1.63618 6.0762 2.44978 6.8898L3.94385 8.38391C4.75744 9.19749 6.07653 9.19749 6.89013 8.38391L8.38424 6.8898C9.19783 6.07621 9.19783 4.75712 8.38424 3.94352L6.89013 2.44944C6.07654 1.63585 4.75745 1.63585 3.94385 2.44944ZM3.62828 5.71128C3.46557 5.54856 3.46557 5.28475 3.62828 5.12203L5.12237 3.62795C5.28508 3.46523 5.5489 3.46523 5.71162 3.62795L7.2057 5.12203C7.36842 5.28475 7.36842 5.54856 7.2057 5.71128L5.71162 7.20537C5.5489 7.36808 5.28508 7.36808 5.12237 7.20537L3.62828 5.71128ZM7.08366 10.8333H3.75033C2.59973 10.8333 1.66699 11.7661 1.66699 12.9167V16.25C1.66699 17.4006 2.59973 18.3333 3.75033 18.3333H7.08366C8.23425 18.3333 9.16699 17.4006 9.16699 16.25V12.9167C9.16699 11.7661 8.23425 10.8333 7.08366 10.8333ZM3.33366 12.9167C3.33366 12.6866 3.52021 12.5 3.75033 12.5H7.08366C7.31378 12.5 7.50033 12.6866 7.50033 12.9167V16.25C7.50033 16.4801 7.31378 16.6667 7.08366 16.6667H3.75033C3.52021 16.6667 3.33366 16.4801 3.33366 16.25V12.9167ZM14.5837 18.3333C12.5126 18.3333 10.8337 16.6544 10.8337 14.5833C10.8337 12.5122 12.5126 10.8333 14.5837 10.8333C16.6547 10.8333 18.3337 12.5122 18.3337 14.5833C18.3337 16.6544 16.6547 18.3333 14.5837 18.3333ZM14.5837 12.5C13.4331 12.5 12.5003 13.4327 12.5003 14.5833C12.5003 15.7339 13.4331 16.6667 14.5837 16.6667C15.7342 16.6667 16.667 15.7339 16.667 14.5833C16.667 13.4327 15.7342 12.5 14.5837 12.5Z" fill="#CF2D39"/>
</svg>
 