<svg width="24" height="24" viewBox="0 0 24 24" fill="none" xmlns="http://www.w3.org/2000/svg">
    <g clip-path="url(#clip0_833_24903)">
    <path d="M12 24C18.6274 24 24 18.6274 24 12C24 5.37258 18.6274 0 12 0C5.37258 0 0 5.37258 0 12C0 18.6274 5.37258 24 12 24Z" fill="#32BA7C"/>
    <path d="M8.93359 17.4133L15.1039 23.5836C20.2144 22.2208 23.9998 17.5647 23.9998 12C23.9998 11.8865 23.9998 11.7729 23.9998 11.6593L19.1544 7.19244L8.93359 17.4133Z" fill="#0AA06E"/>
    <path d="M12.3025 14.6877C12.8325 15.2177 12.8325 16.1262 12.3025 16.6561L11.2048 17.7539C10.6748 18.2839 9.76627 18.2839 9.2363 17.7539L4.42873 12.9085C3.89876 12.3785 3.89876 11.47 4.42873 10.9401L5.52652 9.84227C6.05649 9.3123 6.965 9.3123 7.49497 9.84227L12.3025 14.6877Z" fill="white"/>
    <path d="M16.5048 6.32176C17.0348 5.79179 17.9433 5.79179 18.4733 6.32176L19.5711 7.41955C20.1011 7.94952 20.1011 8.85804 19.5711 9.38801L11.243 17.6782C10.7131 18.2082 9.80453 18.2082 9.27456 17.6782L8.17677 16.5804C7.6468 16.0505 7.6468 15.142 8.17677 14.612L16.5048 6.32176Z" fill="white"/>
    </g>
    <defs>
    <clipPath id="clip0_833_24903">
    <rect width="24" height="24" fill="white"/>
    </clipPath>
    </defs>
    </svg>
     