<svg width="208" height="202" viewBox="0 0 208 202" fill="none" xmlns="http://www.w3.org/2000/svg">
<g filter="url(#filter0_d_903_40532)">
<ellipse cx="101.286" cy="99.2672" rx="70.3497" ry="70.2936" fill="#CF2D39"/>
</g> 
<path d="M87.9814 105.001L76.5993 93.9626C75.0597 92.4694 72.6163 92.4563 71.0607 93.9329L66.8172 97.9611C65.1954 99.5006 65.1506 102.071 66.7179 103.666L87.9959 125.32C89.5476 126.9 92.0869 126.918 93.6613 125.361L135.345 84.1494C136.923 82.5896 136.929 80.0436 135.36 78.4754L130.556 73.6758C128.995 72.1152 126.464 72.1152 124.902 73.6758L93.5934 104.959C92.0481 106.503 89.5496 106.522 87.9814 105.001Z" fill="white"/>
<path d="M29.5585 136.642C29.1136 137.069 28.559 137.394 27.9223 137.568L22.0739 139.166C19.8654 139.769 17.525 139.137 15.9664 137.515L12.9076 134.331C11.349 132.709 10.8115 130.347 11.5049 128.167L13.397 121.954L5.82875 123.908C3.79372 124.464 1.69276 123.267 1.13626 121.233C0.579746 119.2 1.77831 117.101 3.81334 116.545L9.66177 114.947C11.8706 114.343 14.2109 114.976 15.7694 116.597L18.8282 119.781C20.3868 121.403 20.9243 123.765 20.231 125.945L18.0424 132.216L25.907 130.204C27.9421 129.648 30.043 130.846 30.5995 132.879C30.982 134.276 30.5355 135.705 29.5585 136.642Z" fill="#8BB6EF"/>
<path d="M13.397 121.954L13.1977 122.608L11.5047 128.167C10.9088 130.041 11.2229 132.049 12.3123 133.606C14.0404 133.211 16.3387 132.711 18.0424 132.217L18.323 131.413L20.231 125.946C20.8551 123.983 20.4812 121.872 19.2633 120.288C17.5215 120.805 15.146 121.464 13.397 121.954Z" fill="#8388EF"/>
<path d="M54.5264 159.488C54.0342 159.663 53.5777 159.96 53.2046 160.376L49.7764 164.197C48.4818 165.641 48.0744 167.652 48.7136 169.446L49.9679 172.968C50.6071 174.763 52.1944 176.065 54.1104 176.367L59.5382 177.289L55.1881 182.277C53.9952 183.607 54.107 185.651 55.4378 186.843C56.7687 188.035 58.8144 187.923 60.0075 186.593L63.4356 182.772C64.7304 181.328 65.1376 179.317 64.4985 177.523L63.2442 174.001C62.6051 172.206 61.0178 170.904 59.1017 170.603L53.5177 169.883L58.024 164.692C59.2168 163.362 59.105 161.318 57.7742 160.126C56.8596 159.307 55.6074 159.104 54.5264 159.488Z" fill="#A183E2"/>
<path d="M59.5381 177.289L58.9665 177.192L54.1104 176.366C52.4635 176.107 51.06 175.109 50.2922 173.694C51.2466 172.535 52.4968 170.985 53.5176 169.883L54.2333 169.975L59.1016 170.603C60.8266 170.874 62.2847 171.957 63.0248 173.479C61.9724 174.602 60.5728 176.15 59.5381 177.289Z" fill="#9762E2"/>
<path d="M178.575 90.0123C179.187 90.2393 179.862 90.3213 180.553 90.2222L186.902 89.3125C189.3 88.9691 191.304 87.3707 192.133 85.1409L193.761 80.7649C194.59 78.5352 194.116 76.0166 192.524 74.1921L188.07 68.9588L196.238 67.6718C198.447 67.3553 199.981 65.3091 199.665 63.1018C199.348 60.8943 197.3 59.3615 195.091 59.6777L188.742 60.5874C186.344 60.9311 184.34 62.5296 183.511 64.7591L181.884 69.135C181.055 71.3647 181.528 73.8831 183.12 75.7076L187.886 80.8724L179.406 82.2282C177.197 82.5447 175.663 84.5908 175.979 86.7982C176.197 88.3153 177.232 89.5138 178.575 90.0123Z" fill="#FFA585"/>
<path d="M187.395 69.0852L188.07 68.9589L192.524 74.1921C193.892 75.7602 194.434 77.841 194.033 79.8105C192.393 80.1164 190.743 80.3584 189.089 80.5744C188.678 80.628 188.274 80.7274 187.886 80.8724L183.12 75.7076C181.687 74.065 181.161 71.8601 181.675 69.8098C183.583 69.5791 185.491 69.3455 187.395 69.0852Z" fill="#EF7C85"/>
<path d="M14.375 82.5333L9.58488 80.3242C8.15591 79.6652 7.57664 78.0624 8.29113 76.7442L10.6863 72.3262C11.4008 71.0082 13.1386 70.474 14.5675 71.133L19.3576 73.3421C20.7866 74.0011 21.3659 75.6039 20.6514 76.9221L18.2562 81.3401C17.5417 82.658 15.8042 83.1923 14.375 82.5333Z" fill="#FFE266"/>
<path d="M140.731 171.087L145.701 169.669C147.184 169.246 148.729 170.103 149.152 171.585L150.572 176.55C150.996 178.032 150.137 179.576 148.654 179.999L143.685 181.418C142.202 181.841 140.657 180.983 140.234 179.502L138.814 174.536C138.39 173.054 139.249 171.511 140.731 171.087Z" fill="#EF8BBD"/>
<path d="M190.926 123.592L186.823 125.959C185.599 126.665 184.034 126.246 183.328 125.023L180.959 120.924C180.253 119.701 180.672 118.137 181.896 117.431L185.998 115.065C187.222 114.359 188.787 114.778 189.494 116.001L191.862 120.1C192.569 121.323 192.15 122.886 190.926 123.592Z" fill="#78EAC4"/>
<path d="M39.9961 33.4129L41.474 37.6699C41.5374 37.8521 41.6626 37.9966 41.8206 38.0695L45.5129 39.7735C46.0344 40.0142 46.0344 40.8657 45.5129 41.1064L41.8206 42.8104C41.6626 42.8834 41.5372 43.0278 41.474 43.2101L39.9961 47.4669C39.7874 48.0684 39.0489 48.0684 38.8402 47.4669L37.3621 43.2099C37.2987 43.0276 37.1735 42.8832 37.0155 42.8102L33.3231 41.1064C32.8013 40.8657 32.8013 40.0144 33.3231 39.7735L37.0153 38.0695C37.1735 37.9966 37.2987 37.8521 37.3619 37.6699L38.84 33.4129C39.0489 32.8116 39.7872 32.8116 39.9961 33.4129Z" fill="#CAB4EF"/>
<path d="M165.727 26.4034L167.205 30.3765C167.268 30.5465 167.394 30.6813 167.552 30.7494L171.244 32.3399C171.766 32.5647 171.766 33.3591 171.244 33.584L167.552 35.1744C167.394 35.2425 167.269 35.3774 167.205 35.5474L165.727 39.5205C165.518 40.0817 164.78 40.0817 164.571 39.5205L163.093 35.5474C163.03 35.3774 162.905 35.2425 162.746 35.1744L159.054 33.584C158.533 33.3591 158.533 32.5647 159.054 32.3399L162.746 30.7494C162.905 30.6813 163.03 30.5465 163.093 30.3765L164.571 26.4034C164.78 25.8421 165.518 25.8421 165.727 26.4034Z" fill="#FFC7B6"/>
<path d="M133.868 30.7305C136.325 29.7131 137.491 26.8986 136.473 24.4441C135.454 21.9897 132.638 20.8247 130.181 21.8421C127.725 22.8594 126.559 25.674 127.577 28.1284C128.595 30.5829 131.412 31.7479 133.868 30.7305Z" fill="#8BB6EF"/>
<path d="M82.906 24.1498C84.0528 24.1498 84.9825 23.2208 84.9825 22.0749C84.9825 20.929 84.0528 20 82.906 20C81.7591 20 80.8294 20.929 80.8294 22.0749C80.8294 23.2208 81.7591 24.1498 82.906 24.1498Z" fill="#EF8BBD"/>
<path d="M173.712 158.755C174.859 158.755 175.788 157.826 175.788 156.68C175.788 155.534 174.859 154.605 173.712 154.605C172.565 154.605 171.635 155.534 171.635 156.68C171.635 157.826 172.565 158.755 173.712 158.755Z" fill="#FFE266"/>
<defs>
<filter id="filter0_d_903_40532" x="0.936035" y="0.973633" width="200.699" height="200.587" filterUnits="userSpaceOnUse" color-interpolation-filters="sRGB">
<feFlood flood-opacity="0" result="BackgroundImageFix"/>
<feColorMatrix in="SourceAlpha" type="matrix" values="0 0 0 0 0 0 0 0 0 0 0 0 0 0 0 0 0 0 127 0" result="hardAlpha"/>
<feOffset dy="2"/>
<feGaussianBlur stdDeviation="15"/>
<feComposite in2="hardAlpha" operator="out"/>
<feColorMatrix type="matrix" values="0 0 0 0 0 0 0 0 0 0 0 0 0 0 0 0 0 0 0.2 0"/>
<feBlend mode="normal" in2="BackgroundImageFix" result="effect1_dropShadow_903_40532"/>
<feBlend mode="normal" in="SourceGraphic" in2="effect1_dropShadow_903_40532" result="shape"/>
</filter>
</defs>
</svg>
