<svg width="24" height="25" viewBox="0 0 24 25" fill="none" xmlns="http://www.w3.org/2000/svg">
<path d="M20 8.66602V18.416C20 21.416 18.21 22.416 16 22.416H8C5.79 22.416 4 21.416 4 18.416V8.66602C4 5.41602 5.79 4.66602 8 4.66602C8 5.28602 8.24997 5.84601 8.65997 6.25601C9.06997 6.66601 9.63 6.91602 10.25 6.91602H13.75C14.99 6.91602 16 5.90602 16 4.66602C18.21 4.66602 20 5.41602 20 8.66602Z" stroke="#292D32" stroke-width="1.5" stroke-linecap="round" stroke-linejoin="round"/>
<path d="M16 4.66602C16 5.90602 14.99 6.91602 13.75 6.91602H10.25C9.63 6.91602 9.06997 6.66601 8.65997 6.25601C8.24997 5.84601 8 5.28602 8 4.66602C8 3.42602 9.01 2.41602 10.25 2.41602H13.75C14.37 2.41602 14.93 2.66602 15.34 3.07602C15.75 3.48602 16 4.04602 16 4.66602Z" stroke="#292D32" stroke-width="1.5" stroke-linecap="round" stroke-linejoin="round"/>
<path d="M8 13.416H12" stroke="#292D32" stroke-width="1.5" stroke-linecap="round" stroke-linejoin="round"/>
<path d="M8 17.416H16" stroke="#292D32" stroke-width="1.5" stroke-linecap="round" stroke-linejoin="round"/>
</svg>
