<svg width="24" height="24" viewBox="0 0 24 24" fill="none" xmlns="http://www.w3.org/2000/svg">
<path d="M20.4 3.75H3.6C2.025 3.75 0.75 5.025 0.75 6.6V17.4C0.75 18.975 2.025 20.25 3.6 20.25H20.4C21.975 20.25 23.25 18.975 23.25 17.4V6.6C23.25 5.025 21.975 3.75 20.4 3.75ZM21.75 17.4C21.75 18.1425 21.1425 18.75 20.4 18.75H3.6C2.8575 18.75 2.25 18.1425 2.25 17.4V6.6C2.25 5.8575 2.8575 5.25 3.6 5.25H20.4C21.1425 5.25 21.75 5.8575 21.75 6.6V17.4Z" fill="#CF2D39" fillOpacity="1"/>
<path d="M7.5 15.75H4.5C4.08585 15.75 3.75 16.0859 3.75 16.5C3.75 16.9141 4.08585 17.25 4.5 17.25H7.5C7.91415 17.25 8.25 16.9141 8.25 16.5C8.25 16.0859 7.91415 15.75 7.5 15.75Z" fill="#CF2D39" fillOpacity="1"/>
<path d="M19.5 7.5H4.5C4.08585 7.5 3.75 7.83585 3.75 8.25C3.75 8.66415 4.08585 9 4.5 9H19.5C19.9142 9 20.25 8.66415 20.25 8.25C20.25 7.83585 19.9142 7.5 19.5 7.5Z" fill="#CF2D39" fillOpacity="1"/>
</svg>
 