<svg width="24" height="24" viewBox="0 0 24 24" fill="none" xmlns="http://www.w3.org/2000/svg">
<path d="M5 8.25C5.22 8.25 5.435 8.15 5.575 7.98C6.085 7.37 7.75 5.275 7.75 4C7.75 2.485 6.515 1.25 5 1.25C3.485 1.25 2.25 2.485 2.25 4C2.25 5.275 3.915 7.37 4.425 7.98C4.565 8.15 4.78 8.25 5 8.25ZM5 2.75C5.69 2.75 6.25 3.31 6.25 4C6.25 4.39 5.675 5.37 5 6.285C4.325 5.37 3.75 4.39 3.75 4C3.75 3.31 4.31 2.75 5 2.75Z" fill="black" fillOpacity="0.5"/>
<path d="M19 15.75C17.485 15.75 16.25 16.985 16.25 18.5C16.25 19.775 17.915 21.87 18.425 22.48C18.57 22.65 18.78 22.75 19 22.75C19.22 22.75 19.435 22.65 19.575 22.48C20.085 21.87 21.75 19.775 21.75 18.5C21.75 16.985 20.515 15.75 19 15.75ZM19 20.785C18.325 19.87 17.75 18.89 17.75 18.5C17.75 17.81 18.31 17.25 19 17.25C19.69 17.25 20.25 17.81 20.25 18.5C20.25 18.89 19.675 19.87 19 20.785Z" fill="black" fillOpacity="0.5"/>
<path d="M16 21.25H6C4.76 21.25 3.75 20.24 3.75 19C3.75 17.76 4.76 16.75 6 16.75H12C14.07 16.75 15.75 15.07 15.75 13C15.75 10.93 14.07 9.25 12 9.25H6.5C6.085 9.25 5.75 9.585 5.75 10C5.75 10.415 6.085 10.75 6.5 10.75H12C13.24 10.75 14.25 11.76 14.25 13C14.25 14.24 13.24 15.25 12 15.25H6C3.93 15.25 2.25 16.93 2.25 19C2.25 21.07 3.93 22.75 6 22.75H16C16.415 22.75 16.75 22.415 16.75 22C16.75 21.585 16.415 21.25 16 21.25Z" fill="black" fillOpacity="0.5"/>
</svg>
 