<svg width="28" height="22" viewBox="0 0 28 22" fill="none" xmlns="http://www.w3.org/2000/svg">
<path d="M25.7855 11.2322L24.116 10.4045L22.9195 6.8432C22.5729 5.81252 21.6047 5.12008 20.5098 5.12008H17.9433L18.1623 2.8392C18.2309 2.13416 17.9944 1.4294 17.514 0.905238C17.0333 0.380798 16.348 0.0800781 15.6341 0.0800781H3.1013C2.63331 0.0800781 2.25452 0.456118 2.25452 0.920078C2.25452 1.38404 2.63331 1.76008 3.1013 1.76008H15.6341C15.8755 1.76008 16.0982 1.8578 16.2602 2.03476C16.423 2.21228 16.4992 2.44076 16.4769 2.6796L15.0329 17.7201H11.5411C11.4547 17.1626 11.2348 16.6446 10.8611 16.2182C10.2865 15.5616 9.46114 15.2001 8.53928 15.2001C6.95468 15.2001 5.52081 16.2621 4.98989 17.7201H1.40775C0.939764 17.7201 0.560974 18.0961 0.560974 18.5601C0.560974 19.024 0.939764 19.4001 1.40775 19.4001H4.82279C4.90916 19.9576 5.12904 20.4756 5.50275 20.902C6.07743 21.5586 6.90275 21.9201 7.8246 21.9201C9.4092 21.9201 10.8431 20.858 11.374 19.4001H17.5244C17.6108 19.9576 17.8307 20.4756 18.2044 20.902C18.779 21.5586 19.6044 21.9201 20.5262 21.9201C22.1108 21.9201 23.5447 20.858 24.0756 19.4001H25.9642C26.3678 19.4001 26.715 19.1176 26.7943 18.725L27.6411 14.525C27.6518 14.4704 27.6578 14.4155 27.6578 14.3601V14.2374C27.6578 12.9564 26.94 11.8051 25.7855 11.2322ZM9.88368 18.4433C9.74565 19.4174 8.80291 20.2401 7.8246 20.2401C7.39952 20.2401 7.0292 20.0838 6.78025 19.7999C6.52565 19.509 6.41896 19.11 6.48021 18.6768C6.61823 17.7027 7.56098 16.8801 8.53928 16.8801C8.96436 16.8801 9.33468 17.0363 9.58364 17.3202C9.83823 17.6109 9.94493 18.0102 9.88368 18.4433ZM20.5098 6.80008C20.8745 6.80008 21.198 7.03108 21.3137 7.37464L22.2494 10.1601H17.4595L17.7821 6.80008H20.5098ZM22.5853 18.4433C22.4473 19.4174 21.5045 20.2401 20.5262 20.2401C20.1011 20.2401 19.7308 20.0838 19.4819 19.7999C19.2273 19.509 19.1206 19.11 19.1818 18.6768C19.3198 17.7027 20.2626 16.8801 21.2409 16.8801C21.666 16.8801 22.0363 17.0363 22.2853 17.3202C22.5398 17.6109 22.6465 18.0102 22.5853 18.4433ZM25.2704 17.7201H24.2427C24.1563 17.1626 23.9365 16.6446 23.5627 16.2182C22.9881 15.5616 22.1628 15.2001 21.2409 15.2001C19.6563 15.2001 18.2224 16.2621 17.6915 17.7201H16.7338L17.2983 11.8401H23.2238L25.0282 12.735C25.6055 13.0214 25.9642 13.5971 25.9642 14.2374L25.2704 17.7201ZM8.18194 5.96008H1.40775C0.939764 5.96008 0.560974 5.58404 0.560974 5.12008C0.560974 4.65612 0.939764 4.28008 1.40775 4.28008H8.18194C8.64993 4.28008 9.02872 4.65612 9.02872 5.12008C9.02872 5.58404 8.64993 5.96008 8.18194 5.96008ZM6.48839 14.3601H1.40775C0.939764 14.3601 0.560974 13.984 0.560974 13.5201C0.560974 13.0561 0.939764 12.6801 1.40775 12.6801H6.48839C6.95638 12.6801 7.33517 13.0561 7.33517 13.5201C7.33517 13.984 6.95638 14.3601 6.48839 14.3601ZM4.79485 10.1601H3.1013C2.63331 10.1601 2.25452 9.78404 2.25452 9.32008C2.25452 8.85612 2.63331 8.48008 3.1013 8.48008H4.79485C5.26283 8.48008 5.64162 8.85612 5.64162 9.32008C5.64162 9.78404 5.26283 10.1601 4.79485 10.1601ZM11.569 10.1601H8.18194C7.71396 10.1601 7.33517 9.78404 7.33517 9.32008C7.33517 8.85612 7.71396 8.48008 8.18194 8.48008H11.569C12.037 8.48008 12.4158 8.85612 12.4158 9.32008C12.4158 9.78404 12.037 10.1601 11.569 10.1601Z" fill="black"/>
</svg>
