<svg width="21" height="21" viewBox="0 0 21 21" fill="none" xmlns="http://www.w3.org/2000/svg">
<path d="M19.1875 10.6738L17.9453 10.053L17.0551 7.38203C16.7973 6.60902 16.077 6.08969 15.2624 6.08969H13.3528L13.5158 4.37903C13.5668 3.85025 13.3909 3.32168 13.0334 2.92856C12.6758 2.53523 12.1659 2.30969 11.6348 2.30969H2.31041C1.96223 2.30969 1.68041 2.59172 1.68041 2.93969C1.68041 3.28766 1.96223 3.56969 2.31041 3.56969H11.6348C11.8144 3.56969 11.9801 3.64298 12.1006 3.7757C12.2218 3.90884 12.2785 4.0802 12.2619 4.25933L11.1875 15.5397H8.58962C8.52536 15.1216 8.36177 14.7331 8.08373 14.4133C7.65617 13.9208 7.04213 13.6497 6.35627 13.6497C5.17733 13.6497 4.11053 14.4462 3.71552 15.5397H1.05041C0.70223 15.5397 0.42041 15.8217 0.42041 16.1697C0.42041 16.5177 0.70223 16.7997 1.05041 16.7997H3.5912C3.65546 17.2178 3.81905 17.6063 4.09709 17.9261C4.52465 18.4186 5.13869 18.6897 5.82455 18.6897C7.00349 18.6897 8.07029 17.8932 8.4653 16.7997H13.0412C13.1055 17.2178 13.2691 17.6063 13.5471 17.9261C13.9747 18.4186 14.5887 18.6897 15.2745 18.6897C16.4535 18.6897 17.5203 17.8932 17.9153 16.7997H19.3204C19.6207 16.7997 19.879 16.5878 19.938 16.2934L20.568 13.1434C20.576 13.1024 20.5804 13.0613 20.5804 13.0197V12.9277C20.5804 11.967 20.0464 11.1034 19.1875 10.6738ZM7.3565 16.0821C7.25381 16.8127 6.55241 17.4297 5.82455 17.4297C5.50829 17.4297 5.23277 17.3125 5.04755 17.0996C4.85813 16.8814 4.77875 16.5821 4.82432 16.2573C4.92701 15.5267 5.62841 14.9097 6.35627 14.9097C6.67253 14.9097 6.94805 15.0269 7.13327 15.2398C7.32269 15.4578 7.40207 15.7573 7.3565 16.0821ZM15.2624 7.34969C15.5337 7.34969 15.7744 7.52294 15.8604 7.78061L16.5566 9.86969H12.9929L13.2329 7.34969H15.2624ZM16.8065 16.0821C16.7038 16.8127 16.0024 17.4297 15.2745 17.4297C14.9583 17.4297 14.6828 17.3125 14.4975 17.0996C14.3081 16.8814 14.2288 16.5821 14.2743 16.2573C14.377 15.5267 15.0784 14.9097 15.8063 14.9097C16.1225 14.9097 16.3981 15.0269 16.5833 15.2398C16.7727 15.4578 16.8521 15.7573 16.8065 16.0821ZM18.8042 15.5397H18.0396C17.9754 15.1216 17.8118 14.7331 17.5337 14.4133C17.1062 13.9208 16.4921 13.6497 15.8063 13.6497C14.6273 13.6497 13.5605 14.4462 13.1655 15.5397H12.453L12.873 11.1297H17.2815L18.6241 11.8009C19.0535 12.0157 19.3204 12.4474 19.3204 12.9277L18.8042 15.5397ZM6.09041 6.71969H1.05041C0.70223 6.71969 0.42041 6.43766 0.42041 6.08969C0.42041 5.74172 0.70223 5.45969 1.05041 5.45969H6.09041C6.43859 5.45969 6.72041 5.74172 6.72041 6.08969C6.72041 6.43766 6.43859 6.71969 6.09041 6.71969ZM4.83041 13.0197H1.05041C0.70223 13.0197 0.42041 12.7377 0.42041 12.3897C0.42041 12.0417 0.70223 11.7597 1.05041 11.7597H4.83041C5.17859 11.7597 5.46041 12.0417 5.46041 12.3897C5.46041 12.7377 5.17859 13.0197 4.83041 13.0197ZM3.57041 9.86969H2.31041C1.96223 9.86969 1.68041 9.58766 1.68041 9.23969C1.68041 8.89172 1.96223 8.60969 2.31041 8.60969H3.57041C3.91859 8.60969 4.20041 8.89172 4.20041 9.23969C4.20041 9.58766 3.91859 9.86969 3.57041 9.86969ZM8.61041 9.86969H6.09041C5.74223 9.86969 5.46041 9.58766 5.46041 9.23969C5.46041 8.89172 5.74223 8.60969 6.09041 8.60969H8.61041C8.95859 8.60969 9.24041 8.89172 9.24041 9.23969C9.24041 9.58766 8.95859 9.86969 8.61041 9.86969Z" fill="#CF2D39" fillOpacity="1"/>
</svg>
 