<svg width="24" height="25" viewBox="0 0 24 25" fill="none" xmlns="http://www.w3.org/2000/svg">
<path d="M5.47 9.41602C7.403 9.41602 8.97 7.84901 8.97 5.91602C8.97 3.98302 7.403 2.41602 5.47 2.41602C3.537 2.41602 1.97 3.98302 1.97 5.91602C1.97 7.84901 3.537 9.41602 5.47 9.41602Z" stroke="black" stroke-width="1.5"/>
<path d="M16.97 15.416H19.97C21.07 15.416 21.97 16.316 21.97 17.416V20.416C21.97 21.516 21.07 22.416 19.97 22.416H16.97C15.87 22.416 14.97 21.516 14.97 20.416V17.416C14.97 16.316 15.87 15.416 16.97 15.416Z" stroke="black" stroke-width="1.5"/>
<path d="M12 5.41602H14.68C16.53 5.41602 17.39 7.70602 16 8.92602L8.01001 15.916C6.62001 17.126 7.48001 19.416 9.32001 19.416H12" stroke="black" stroke-width="1.5" stroke-linecap="round" stroke-linejoin="round"/>
<path d="M5.48622 5.91602H5.49777" stroke="black" stroke-width="2" stroke-linecap="round" stroke-linejoin="round"/>
<path d="M18.4862 18.916H18.4978" stroke="black" stroke-width="2" stroke-linecap="round" stroke-linejoin="round"/>
</svg>
