<svg width="19" height="19" viewBox="0 0 19 19" fill="none" xmlns="http://www.w3.org/2000/svg">
<g clip-path="url(#clip0_909_46345)">
<path d="M10.3708 0.791992C8.45631 0.80131 6.59902 1.44545 5.0899 2.62349C3.58078 3.80154 2.50508 5.44692 2.03135 7.30187L1.45185 6.42549C1.39699 6.33374 1.32411 6.25405 1.23761 6.19123C1.15112 6.12841 1.0528 6.08375 0.948577 6.05996C0.844357 6.03617 0.736397 6.03373 0.631209 6.05279C0.52602 6.07185 0.425782 6.11202 0.336539 6.17088C0.247296 6.22973 0.170897 6.30605 0.111949 6.39523C0.0530014 6.48441 0.0127259 6.5846 -0.00644843 6.68977C-0.0256228 6.79494 -0.0232988 6.9029 0.000383351 7.00715C0.0240655 7.11139 0.0686153 7.20976 0.131346 7.29633L1.87301 9.93574C1.994 10.105 2.17237 10.2246 2.37493 10.2722C2.58177 10.3132 2.79645 10.2721 2.97343 10.1574L5.58593 8.39753C5.67601 8.34128 5.75384 8.26749 5.81481 8.18053C5.87578 8.09358 5.91863 7.99525 5.94081 7.89139C5.96299 7.78754 5.96405 7.68028 5.94392 7.57601C5.92379 7.47174 5.88289 7.37258 5.82366 7.28444C5.76442 7.1963 5.68805 7.12098 5.5991 7.06296C5.51016 7.00495 5.41045 6.96542 5.30591 6.94673C5.20137 6.92804 5.09414 6.93058 4.9906 6.95419C4.88706 6.9778 4.78933 7.022 4.70322 7.08416L3.51493 7.88533C3.83119 6.60155 4.50192 5.43252 5.45062 4.51161C6.39932 3.5907 7.58777 2.955 8.88037 2.67704C10.173 2.39908 11.5177 2.49004 12.7611 2.93956C14.0045 3.38908 15.0965 4.17905 15.9125 5.21934C16.7285 6.25963 17.2357 7.50835 17.3762 8.82302C17.5167 10.1377 17.2848 11.4654 16.707 12.6546C16.1292 13.8438 15.2287 14.8467 14.1084 15.5488C12.9881 16.2509 11.6929 16.6239 10.3708 16.6253C9.23737 16.6223 8.12146 16.3456 7.11792 15.8188C6.11438 15.292 5.25287 14.5307 4.60664 13.5996C4.54876 13.5107 4.47362 13.4344 4.38567 13.3751C4.29772 13.3158 4.19875 13.2748 4.09465 13.2545C3.99055 13.2343 3.88344 13.2351 3.77967 13.257C3.6759 13.2789 3.57759 13.3215 3.49058 13.3821C3.40357 13.4428 3.32964 13.5203 3.27316 13.61C3.21668 13.6998 3.17882 13.8 3.16182 13.9047C3.14482 14.0094 3.14902 14.1164 3.17419 14.2194C3.19935 14.3225 3.24496 14.4194 3.3083 14.5044C4.3589 16.019 5.86763 17.1567 7.61276 17.7502C9.3579 18.3437 11.2474 18.3617 13.0035 17.8017C14.7597 17.2416 16.2899 16.133 17.3692 14.6388C18.4486 13.1446 19.0201 11.3435 18.9999 9.50033C19.0077 7.20205 18.1036 4.99451 16.4859 3.36197C14.8682 1.72943 12.669 0.805186 10.3708 0.791992Z" fill="#CF2D39"/>
<path d="M10.2917 4.71075C10.0817 4.71075 9.88034 4.79416 9.73187 4.94263C9.58341 5.09109 9.5 5.29246 9.5 5.50242V9.50034C9.50337 9.70961 9.58631 9.90974 9.73196 10.06L12.107 12.4564C12.256 12.6031 12.4564 12.6858 12.6655 12.6868C12.8747 12.6879 13.0759 12.6072 13.2264 12.462C13.3754 12.3141 13.4597 12.1132 13.4605 11.9032C13.4614 11.6933 13.3789 11.4916 13.2311 11.3425L11.0833 9.17496V5.50242C11.0833 5.29246 10.9999 5.09109 10.8515 4.94263C10.703 4.79416 10.5016 4.71075 10.2917 4.71075Z" fill="#CF2D39"/>
</g>
<defs>
<clipPath id="clip0_909_46345">
<rect width="19" height="19" fill="white"/>
</clipPath>
</defs>
</svg>
 