<svg width="24" height="24" viewBox="0 0 24 24" fill="none" xmlns="http://www.w3.org/2000/svg">
<g clip-path="url(#clip0_917_37251)">
<path d="M13.0999 1.00041C10.6816 1.01218 8.33556 1.82583 6.4293 3.31389C4.52304 4.80194 3.16426 6.88033 2.56586 9.22341L1.83386 8.11641C1.76456 8.00052 1.67251 7.89986 1.56325 7.8205C1.454 7.74115 1.3298 7.68474 1.19815 7.65469C1.0665 7.62463 0.930135 7.62155 0.797265 7.64563C0.664395 7.66971 0.537779 7.72045 0.425051 7.79479C0.312323 7.86913 0.215819 7.96554 0.141358 8.07819C0.0668978 8.19083 0.0160235 8.3174 -0.00819679 8.45024C-0.0324171 8.58309 -0.0294815 8.71946 0.000432834 8.85114C0.0303472 8.98282 0.0866206 9.10707 0.16586 9.21641L2.36586 12.5504C2.51868 12.7643 2.74399 12.9153 2.99986 12.9754C3.26113 13.0272 3.53231 12.9752 3.75586 12.8304L7.05586 10.6074C7.16964 10.5364 7.26796 10.4431 7.34497 10.3333C7.42198 10.2235 7.47611 10.0993 7.50412 9.96808C7.53214 9.83689 7.53348 9.70141 7.50806 9.5697C7.48264 9.43799 7.43097 9.31274 7.35615 9.2014C7.28132 9.09007 7.18486 8.99493 7.0725 8.92164C6.96015 8.84835 6.8342 8.79842 6.70215 8.77482C6.5701 8.75121 6.43465 8.75442 6.30386 8.78424C6.17307 8.81406 6.04962 8.8699 5.94086 8.94841L4.43986 9.96041C4.83934 8.3388 5.68659 6.86213 6.88494 5.69888C8.0833 4.53563 9.58449 3.73264 11.2173 3.38153C12.85 3.03041 14.5486 3.14532 16.1192 3.71314C17.6898 4.28095 19.0692 5.27881 20.1 6.59286C21.1307 7.90691 21.7714 9.48423 21.9488 11.1449C22.1263 12.8055 21.8333 14.4826 21.1035 15.9848C20.3736 17.4869 19.2362 18.7537 17.8211 19.6406C16.4059 20.5274 14.77 20.9986 13.0999 21.0004C11.6682 20.9965 10.2586 20.6471 8.99101 19.9816C7.72338 19.3162 6.63516 18.3546 5.81886 17.1784C5.74575 17.0662 5.65083 16.9697 5.53974 16.8949C5.42864 16.82 5.30364 16.7682 5.17214 16.7426C5.04065 16.717 4.90535 16.718 4.77427 16.7457C4.64319 16.7734 4.51901 16.8271 4.40911 16.9037C4.2992 16.9803 4.2058 17.0782 4.13447 17.1916C4.06313 17.305 4.0153 17.4316 3.99382 17.5638C3.97235 17.6961 3.97766 17.8313 4.00945 17.9614C4.04123 18.0915 4.09884 18.214 4.17886 18.3214C5.50593 20.2346 7.41169 21.6716 9.61607 22.4213C11.8204 23.171 14.2072 23.1938 16.4255 22.4864C18.6438 21.7789 20.5767 20.3786 21.94 18.4911C23.3034 16.6037 24.0254 14.3286 23.9999 12.0004C24.0097 9.09732 22.8677 6.30886 20.8243 4.2467C18.7808 2.18454 16.0029 1.01708 13.0999 1.00041Z" fill="black"/>
<path d="M13 5.95041C12.7348 5.95041 12.4804 6.05577 12.2929 6.2433C12.1054 6.43084 12 6.68519 12 6.95041V12.0004C12.0043 12.2648 12.109 12.5175 12.293 12.7074L15.293 15.7344C15.4813 15.9197 15.7344 16.0241 15.9986 16.0254C16.2627 16.0267 16.5169 15.9248 16.707 15.7414C16.8953 15.5547 17.0017 15.3008 17.0028 15.0357C17.0039 14.7705 16.8997 14.5157 16.713 14.3274L14 11.5894V6.95041C14 6.68519 13.8946 6.43084 13.7071 6.2433C13.5196 6.05577 13.2652 5.95041 13 5.95041Z" fill="black"/>
</g>
<defs>
<clipPath id="clip0_917_37251">
<rect width="24" height="24" fill="white"/>
</clipPath>
</defs>
</svg>
 