<svg width="16" height="16" viewBox="0 0 15 15" fill="none" xmlns="http://www.w3.org/2000/svg">
<path d="M10.6163 14.9982H4.38279C3.67785 15.0243 2.99106 14.7713 2.47164 14.294C1.95222 13.8166 1.64214 13.1536 1.60877 12.449V9.10724C1.60877 8.96521 1.66519 8.82899 1.76562 8.72856C1.86605 8.62813 2.00226 8.5717 2.14429 8.5717C2.28632 8.5717 2.42253 8.62813 2.52297 8.72856C2.6234 8.82899 2.67982 8.96521 2.67982 9.10724V12.449C2.71273 12.8696 2.90979 13.2604 3.22843 13.537C3.54707 13.8136 3.96171 13.9537 4.38279 13.9271H10.6163C11.0374 13.9537 11.452 13.8136 11.7707 13.537C12.0893 13.2604 12.2864 12.8696 12.3193 12.449V9.10724C12.3193 8.96521 12.3757 8.82899 12.4761 8.72856C12.5766 8.62813 12.7128 8.5717 12.8548 8.5717C12.9968 8.5717 13.133 8.62813 13.2335 8.72856C13.3339 8.82899 13.3903 8.96521 13.3903 9.10724V12.449C13.3569 13.1536 13.0469 13.8166 12.5274 14.294C12.008 14.7713 11.3212 15.0243 10.6163 14.9982ZM14.8416 7.88086C14.8918 7.83107 14.9316 7.77184 14.9588 7.70658C14.986 7.64132 15 7.57133 15 7.50063C15 7.42993 14.986 7.35993 14.9588 7.29467C14.9316 7.22941 14.8918 7.17018 14.8416 7.1204L7.87977 0.158411C7.82998 0.108216 7.77075 0.0683751 7.70549 0.0411865C7.64023 0.013998 7.57024 0 7.49954 0C7.42885 0 7.35885 0.013998 7.29359 0.0411865C7.22833 0.0683751 7.1691 0.108216 7.11932 0.158411L0.157493 7.1204C0.0566521 7.22124 0 7.35801 0 7.50063C0 7.64324 0.0566521 7.78002 0.157493 7.88086C0.258335 7.9817 0.395105 8.03836 0.537716 8.03836C0.680328 8.03836 0.817098 7.9817 0.917939 7.88086L7.49954 1.29375L14.0811 7.88086C14.1309 7.93105 14.1902 7.9709 14.2554 7.99808C14.3207 8.02527 14.3907 8.03927 14.4614 8.03927C14.5321 8.03927 14.6021 8.02527 14.6673 7.99808C14.7326 7.9709 14.7918 7.93105 14.8416 7.88086Z" fill="black"/>
</svg>
