<svg width="22" height="22" viewBox="0 0 22 22" fill="none" xmlns="http://www.w3.org/2000/svg">
<path d="M15.3651 21.5H6.63514C5.64788 21.5366 4.68604 21.1822 3.95859 20.5138C3.23115 19.8453 2.79688 18.9168 2.75014 17.93V13.25C2.75014 13.051 2.82916 12.8603 2.96981 12.7196C3.11046 12.579 3.30123 12.5 3.50014 12.5C3.69905 12.5 3.88982 12.579 4.03047 12.7196C4.17112 12.8603 4.25014 13.051 4.25014 13.25V17.93C4.29623 18.519 4.57222 19.0664 5.01847 19.4537C5.46472 19.841 6.04542 20.0372 6.63514 20H15.3651C15.9549 20.0372 16.5356 19.841 16.9818 19.4537C17.4281 19.0664 17.704 18.519 17.7501 17.93V13.25C17.7501 13.051 17.8292 12.8603 17.9698 12.7196C18.1105 12.579 18.3012 12.5 18.5001 12.5C18.699 12.5 18.8898 12.579 19.0305 12.7196C19.1711 12.8603 19.2501 13.051 19.2501 13.25V17.93C19.2034 18.9168 18.7691 19.8453 18.0417 20.5138C17.3142 21.1822 16.3524 21.5366 15.3651 21.5ZM21.2826 11.5325C21.3529 11.4627 21.4087 11.3798 21.4468 11.2884C21.4849 11.197 21.5045 11.099 21.5045 11C21.5045 10.9009 21.4849 10.8029 21.4468 10.7115C21.4087 10.6201 21.3529 10.5372 21.2826 10.4675L11.5326 0.717454C11.4629 0.647158 11.38 0.591362 11.2886 0.553286C11.1972 0.515209 11.0991 0.495605 11.0001 0.495605C10.9011 0.495605 10.8031 0.515209 10.7117 0.553286C10.6203 0.591362 10.5374 0.647158 10.4676 0.717454L0.717639 10.4675C0.576411 10.6087 0.49707 10.8002 0.49707 11C0.49707 11.1997 0.576411 11.3912 0.717639 11.5325C0.858867 11.6737 1.05041 11.753 1.25014 11.753C1.44987 11.753 1.64141 11.6737 1.78264 11.5325L11.0001 2.30745L20.2176 11.5325C20.2874 11.6027 20.3703 11.6585 20.4617 11.6966C20.5531 11.7347 20.6511 11.7543 20.7501 11.7543C20.8491 11.7543 20.9472 11.7347 21.0386 11.6966C21.13 11.6585 21.2129 11.6027 21.2826 11.5325Z" fill="black"/>
</svg>
 