<svg width="24" height="24" viewBox="0 0 24 24" fill="none" xmlns="http://www.w3.org/2000/svg">
<path d="M7.83656 24H3.32663C1.08283 24 0 22.9619 0 20.8186V3.1814C0 1.03814 1.09399 0 3.32663 0H7.83656C10.0804 0 11.1632 1.03814 11.1632 3.1814V20.8186C11.1632 22.9619 10.0692 24 7.83656 24ZM3.32663 1.67442C1.90891 1.67442 1.67448 2.05395 1.67448 3.1814V20.8186C1.67448 21.946 1.90891 22.3256 3.32663 22.3256H7.83656C9.25428 22.3256 9.48871 21.946 9.48871 20.8186V3.1814C9.48871 2.05395 9.25428 1.67442 7.83656 1.67442H3.32663Z" fill="black"/>
<path d="M20.6734 13.9535H16.1634C13.9196 13.9535 12.8368 12.9153 12.8368 10.7721V3.1814C12.8368 1.03814 13.9308 0 16.1634 0H20.6734C22.9172 0 24 1.03814 24 3.1814V10.7721C24 12.9153 22.906 13.9535 20.6734 13.9535ZM16.1634 1.67442C14.7457 1.67442 14.5113 2.05395 14.5113 3.1814V10.7721C14.5113 11.8995 14.7457 12.2791 16.1634 12.2791H20.6734C22.0911 12.2791 22.3255 11.8995 22.3255 10.7721V3.1814C22.3255 2.05395 22.0911 1.67442 20.6734 1.67442H16.1634Z" fill="black"/>
<path d="M20.6735 24H16.1635C13.9197 24 12.8369 22.9619 12.8369 20.8186V18.8093C12.8369 16.6661 13.9309 15.6279 16.1635 15.6279H20.6735C22.9173 15.6279 24.0001 16.6661 24.0001 18.8093V20.8186C24.0001 22.9619 22.9061 24 20.6735 24ZM16.1635 17.3023C14.7458 17.3023 14.5114 17.6819 14.5114 18.8093V20.8186C14.5114 21.9461 14.7458 22.3256 16.1635 22.3256H20.6735C22.0912 22.3256 22.3256 21.9461 22.3256 20.8186V18.8093C22.3256 17.6819 22.0912 17.3023 20.6735 17.3023H16.1635Z" fill="black"/>
</svg>
