<svg width="98" height="82" viewBox="0 0 98 82" fill="none" xmlns="http://www.w3.org/2000/svg">
<rect width="98" height="82" rx="19" fill="#EDF3F3"/>
<path d="M55.8189 55.9999H44.1789C42.8625 56.0488 41.5801 55.5763 40.6101 54.685C39.6402 53.7937 39.0612 52.5557 38.9989 51.2399V44.9999C38.9989 44.7347 39.1042 44.4804 39.2918 44.2928C39.4793 44.1053 39.7337 43.9999 39.9989 43.9999C40.2641 43.9999 40.5184 44.1053 40.706 44.2928C40.8935 44.4804 40.9989 44.7347 40.9989 44.9999V51.2399C41.0603 52.0254 41.4283 52.7551 42.0233 53.2716C42.6183 53.788 43.3926 54.0496 44.1789 53.9999H55.8189C56.6052 54.0496 57.3794 53.788 57.9744 53.2716C58.5694 52.7551 58.9374 52.0254 58.9989 51.2399V44.9999C58.9989 44.7347 59.1042 44.4804 59.2918 44.2928C59.4793 44.1053 59.7337 43.9999 59.9989 43.9999C60.2641 43.9999 60.5184 44.1053 60.706 44.2928C60.8935 44.4804 60.9989 44.7347 60.9989 44.9999V51.2399C60.9366 52.5557 60.3575 53.7937 59.3876 54.685C58.4177 55.5763 57.1352 56.0488 55.8189 55.9999ZM63.7089 42.7099C63.8026 42.617 63.877 42.5064 63.9278 42.3845C63.9785 42.2627 64.0047 42.132 64.0047 41.9999C64.0047 41.8679 63.9785 41.7372 63.9278 41.6154C63.877 41.4935 63.8026 41.3829 63.7089 41.2899L50.7089 28.2899C50.6159 28.1962 50.5053 28.1218 50.3834 28.071C50.2616 28.0203 50.1309 27.9941 49.9989 27.9941C49.8669 27.9941 49.7362 28.0203 49.6143 28.071C49.4924 28.1218 49.3818 28.1962 49.2889 28.2899L36.2889 41.2899C36.1006 41.4782 35.9948 41.7336 35.9948 41.9999C35.9948 42.2662 36.1006 42.5216 36.2889 42.7099C36.4772 42.8982 36.7326 43.004 36.9989 43.004C37.2652 43.004 37.5206 42.8982 37.7089 42.7099L49.9989 30.4099L62.2889 42.7099C62.3818 42.8037 62.4924 42.8781 62.6143 42.9288C62.7362 42.9796 62.8669 43.0057 62.9989 43.0057C63.1309 43.0057 63.2616 42.9796 63.3834 42.9288C63.5053 42.8781 63.6159 42.8037 63.7089 42.7099Z" fill="black"/>
</svg>
