<svg width="15" height="15" viewBox="0 0 15 15" fill="none" xmlns="http://www.w3.org/2000/svg">
    <g clip-path="url(#clip0_903_39623)">
    <path d="M7.5 0C3.3544 0 0 3.3547 0 7.5C0 11.6456 3.3547 15 7.5 15C11.6456 15 15 11.6453 15 7.5C15 3.3544 11.6453 0 7.5 0ZM7.5 13.8281C4.00216 13.8281 1.17188 10.9976 1.17188 7.5C1.17188 4.00216 4.00239 1.17188 7.5 1.17188C10.9978 1.17188 13.8281 4.00239 13.8281 7.5C13.8281 10.9978 10.9976 13.8281 7.5 13.8281Z" fill="black"/>
    <path d="M7.5 6.27917C7.17639 6.27917 6.91406 6.5415 6.91406 6.86511V10.6383C6.91406 10.962 7.17639 11.2243 7.5 11.2243C7.82361 11.2243 8.08594 10.9619 8.08594 10.6383V6.86511C8.08594 6.5415 7.82361 6.27917 7.5 6.27917Z" fill="black"/>
    <path d="M7.5 5.56177C7.93687 5.56177 8.29102 5.20762 8.29102 4.77075C8.29102 4.33389 7.93687 3.97974 7.5 3.97974C7.06313 3.97974 6.70898 4.33389 6.70898 4.77075C6.70898 5.20762 7.06313 5.56177 7.5 5.56177Z" fill="black"/>
    </g>
    <defs>
    <clipPath id="clip0_903_39623">
    <rect width="15" height="15" fill="white"/>
    </clipPath>
    </defs>
    </svg>
     