<svg width="19" height="25" viewBox="0 0 19 25" fill="none" xmlns="http://www.w3.org/2000/svg">
<path d="M18.9161 22.0679L17.6464 5.99207C17.6113 5.54802 17.2494 5.20601 16.8144 5.20601H14.3221V4.99968C14.3221 2.2548 12.1418 0.0214844 9.46166 0.0214844C6.78155 0.0214844 4.60118 2.2548 4.60118 4.99998V5.20631H2.10889C1.67401 5.20631 1.31197 5.54831 1.2769 5.99237L0.0072239 22.0679C-0.0428562 22.7009 0.169185 23.3314 0.589345 23.7977C1.00979 24.2645 1.60635 24.5321 2.226 24.5321H16.6973C17.3173 24.5321 17.9136 24.2645 18.334 23.7977C18.7541 23.3311 18.9659 22.7006 18.9161 22.0679ZM6.27068 4.99998C6.27068 3.19787 7.70227 1.73152 9.46166 1.73152C11.2211 1.73152 12.6526 3.19787 12.6526 4.99998V5.20631H6.27068V4.99998ZM17.1066 22.6382C17.0449 22.7072 16.9096 22.8221 16.6973 22.8221H2.226C2.01372 22.8221 1.87845 22.7072 1.81669 22.6382C1.75494 22.5698 1.6542 22.4225 1.67144 22.2059L2.87903 6.91609H4.60113V11.1547C4.60113 11.627 4.97484 12.0097 5.43588 12.0097C5.89692 12.0097 6.27063 11.6269 6.27063 11.1547V6.91609H12.6526V11.1547C12.6526 11.627 13.0263 12.0097 13.4873 12.0097C13.9484 12.0097 14.3221 11.6269 14.3221 11.1547V6.91609H16.0442L17.2518 22.2062C17.2691 22.4228 17.1681 22.5698 17.1066 22.6382Z" fill="black" fill-opacity="0.5"/>
</svg>
