<svg width="18" height="17" viewBox="0 0 18 17" fill="none" xmlns="http://www.w3.org/2000/svg">
<path d="M9.83299 0C8.02118 0.00881818 6.26347 0.618423 4.83526 1.73331C3.40705 2.84819 2.38903 4.40536 1.94069 6.16085L1.39226 5.33146C1.34034 5.24463 1.27137 5.16921 1.18951 5.10976C1.10766 5.0503 1.01461 5.00804 0.915973 4.98553C0.81734 4.96301 0.715169 4.9607 0.61562 4.97874C0.516071 4.99678 0.421207 5.0348 0.336749 5.0905C0.25229 5.1462 0.179988 5.21842 0.1242 5.30282C0.0684128 5.38722 0.0302967 5.48204 0.0121503 5.58157C-0.00599602 5.6811 -0.00379664 5.78328 0.0186158 5.88193C0.0410283 5.98059 0.0831895 6.07368 0.142557 6.1556L1.79085 8.65351C1.90534 8.81373 2.07415 8.92689 2.26585 8.97193C2.4616 9.01076 2.66477 8.97179 2.83226 8.86329L5.3047 7.19777C5.38994 7.14454 5.46361 7.0747 5.5213 6.99241C5.579 6.91011 5.61955 6.81706 5.64054 6.71877C5.66154 6.62048 5.66254 6.51898 5.64349 6.4203C5.62444 6.32161 5.58574 6.22777 5.52968 6.14436C5.47361 6.06095 5.40134 5.98966 5.31716 5.93476C5.23298 5.87985 5.13862 5.84244 5.03968 5.82475C4.94075 5.80707 4.83927 5.80947 4.74128 5.83181C4.64329 5.85416 4.5508 5.89599 4.46931 5.95481L3.34473 6.71303C3.64403 5.49808 4.27881 4.39173 5.17664 3.52019C6.07447 2.64866 7.1992 2.04704 8.42251 1.78398C9.64581 1.52092 10.9184 1.60701 12.0952 2.03243C13.2719 2.45785 14.3053 3.20547 15.0776 4.18998C15.8499 5.17449 16.3299 6.35626 16.4628 7.60045C16.5958 8.84463 16.3763 10.1011 15.8295 11.2266C15.2827 12.3521 14.4305 13.3012 13.3702 13.9656C12.31 14.63 11.0843 14.9831 9.83299 14.9844C8.76036 14.9815 7.70429 14.7197 6.75455 14.2211C5.80481 13.7226 4.98949 13.0021 4.37791 12.1209C4.32313 12.0368 4.25202 11.9646 4.16878 11.9085C4.08555 11.8524 3.99189 11.8136 3.89337 11.7944C3.79485 11.7752 3.69348 11.776 3.59528 11.7967C3.49707 11.8175 3.40404 11.8577 3.32169 11.9151C3.23935 11.9725 3.16937 12.0458 3.11592 12.1308C3.06247 12.2158 3.02664 12.3106 3.01055 12.4097C2.99446 12.5087 2.99844 12.61 3.02225 12.7075C3.04607 12.805 3.08923 12.8968 3.14918 12.9773C4.14345 14.4107 5.57129 15.4873 7.22286 16.049C8.87443 16.6107 10.6626 16.6277 12.3246 16.0977C13.9866 15.5677 15.4348 14.5185 16.4562 13.1044C17.4777 11.6903 18.0186 9.9858 17.9995 8.24144C18.0069 6.06638 17.1512 3.9772 15.6203 2.43219C14.0893 0.887174 12.008 0.0124868 9.83299 0Z" fill="black"/>
<path d="M9.75752 3.70898C9.55882 3.70898 9.36825 3.78792 9.22774 3.92843C9.08724 4.06893 9.0083 4.2595 9.0083 4.45821V8.24178C9.01149 8.43983 9.08998 8.62923 9.22782 8.77147L11.4755 11.0394C11.6165 11.1782 11.8062 11.2564 12.0041 11.2574C12.202 11.2584 12.3925 11.182 12.5349 11.0446C12.6759 10.9047 12.7557 10.7145 12.7565 10.5158C12.7573 10.3172 12.6792 10.1263 12.5394 9.98521L10.5067 7.93385V4.45821C10.5067 4.2595 10.4278 4.06893 10.2873 3.92843C10.1468 3.78792 9.95623 3.70898 9.75752 3.70898Z" fill="black"/>
</svg>
