<svg width="24" height="21" viewBox="0 0 24 21" fill="none" xmlns="http://www.w3.org/2000/svg">
<path d="M21.6108 3.88324H16.4394V1.7994C16.4394 0.807178 15.6322 0 14.6399 0H9.36001C8.36779 0 7.56057 0.807178 7.56057 1.7994V3.88324H2.38919C1.07176 3.88324 0 4.95504 0 6.27243V18.4924C0 19.8098 1.07176 20.8816 2.38919 20.8816H21.6108C22.9282 20.8816 24 19.8098 24 18.4924V6.27243C24 4.95504 22.9282 3.88324 21.6108 3.88324ZM9.08471 1.7994C9.08471 1.6476 9.20822 1.52415 9.36001 1.52415H14.6399C14.7917 1.52415 14.9152 1.64765 14.9152 1.7994V3.88324H9.08471V1.7994ZM1.52415 6.27243C1.52415 5.79542 1.91218 5.40738 2.38919 5.40738H21.6108C22.0878 5.40738 22.4759 5.79542 22.4759 6.27243V7.40034C22.4759 8.45829 21.7665 9.40369 20.7507 9.69942L12.7801 12.0201C12.2698 12.1687 11.7302 12.1687 11.2198 12.0201L3.24929 9.69937C2.23354 9.40364 1.52415 8.45829 1.52415 7.40034V6.27243ZM21.6108 19.3575H2.38919C1.91223 19.3575 1.52415 18.9694 1.52415 18.4925V10.5034C1.90818 10.8002 2.34595 11.0238 2.82319 11.1628C11.6279 13.7263 11.1754 13.6558 12 13.6558C12.8354 13.6558 12.3617 13.7293 21.1768 11.1628C21.6541 11.0238 22.0918 10.8002 22.4758 10.5034V18.4924C22.4759 18.9694 22.0878 19.3575 21.6108 19.3575Z" fill="#00000080"/>
</svg>
