<svg width="24" height="24" viewBox="0 0 24 24" fill="none" xmlns="http://www.w3.org/2000/svg">
<path d="M22.1588 1.62185C22.054 1.55368 21.9339 1.51276 21.8094 1.50281C21.6848 1.49285 21.5597 1.51418 21.4455 1.56485L15.4672 4.2221L8.79675 1.5536C8.70367 1.51638 8.60408 1.49821 8.50386 1.50014C8.40364 1.50207 8.30482 1.52407 8.21325 1.56485L1.9455 4.35035C1.81289 4.40926 1.70021 4.50539 1.62114 4.62706C1.54206 4.74873 1.49998 4.89074 1.5 5.03585V21.7503C1.49998 21.8753 1.53119 21.9983 1.59078 22.1081C1.65037 22.2179 1.73646 22.3111 1.84123 22.3793C1.94599 22.4474 2.06611 22.4882 2.19068 22.4981C2.31525 22.508 2.44031 22.4866 2.5545 22.4358L8.53275 19.7786L15.2032 22.4471C15.2964 22.4839 15.396 22.5019 15.4961 22.5C15.5963 22.4981 15.6951 22.4763 15.7867 22.4358L22.0545 19.6503C22.1871 19.5914 22.2998 19.4953 22.3789 19.3736C22.4579 19.252 22.5 19.11 22.5 18.9648V2.25035C22.4999 2.12546 22.4687 2.00256 22.4091 1.8928C22.3495 1.78305 22.2635 1.68991 22.1588 1.62185ZM9.26775 3.3581L14.7323 5.54435V20.6426L9.26775 18.4563V3.3581ZM3 5.52335L7.76775 3.4046V18.4796L3 20.5961V5.52335ZM21 18.4773L16.2323 20.5961V5.52335L21 3.4046V18.4773Z" fill="black" fillOpacity="0.5"/>
</svg>
 