<svg width="24" height="24" viewBox="0 0 24 24" fill="none" xmlns="http://www.w3.org/2000/svg">
<g clip-path="url(#clip0_759_32396)">
<path d="M9.03648 12.5934C10.6937 13.9802 13.3768 13.9802 15.0241 12.5934C16.6764 11.2067 16.6616 8.95506 15.0044 7.56833C13.3472 6.1816 10.6641 6.1816 9.01675 7.56833C7.36942 8.95506 7.37928 11.1996 9.03648 12.5934ZM15.5617 13.0366C16.0204 12.6506 16.7602 12.6506 17.2189 13.0366C17.6776 13.4226 17.6825 14.0445 17.2239 14.4305C16.7701 14.8165 16.0253 14.8165 15.5667 14.4305C15.108 14.0445 15.103 13.4226 15.5617 13.0366ZM6.82195 5.72413C7.28064 5.33813 8.02046 5.33813 8.48408 5.72413C8.94277 6.11012 8.9477 6.73201 8.48901 7.118C8.03526 7.504 7.2905 7.504 6.83181 7.118C6.36819 6.73201 6.36326 6.11012 6.82195 5.72413ZM0.612366 8.70488L13.6974 19.6486C14.452 20.2848 15.6801 20.2848 16.4298 19.6486L23.4384 13.7443C24.1881 13.1081 24.1881 12.0788 23.4334 11.4497L10.3484 0.498872C9.59382 -0.137308 8.36571 -0.13016 7.61109 0.498872L0.602502 6.41034C-0.147185 7.03937 -0.142253 8.0687 0.612366 8.70488ZM3.45329 6.38175C3.36944 6.31027 3.28066 6.25308 3.18695 6.1959L7.37435 2.67189C7.43847 2.75052 7.51245 2.822 7.59629 2.89348C8.36078 3.53681 9.60368 3.52966 10.3632 2.89348C10.452 2.822 10.526 2.74337 10.5901 2.6576L20.7799 11.1853C20.6418 11.2567 20.5185 11.3354 20.4002 11.4354C19.6357 12.0788 19.6406 13.1152 20.41 13.7586C20.5284 13.8586 20.6566 13.9373 20.7947 14.0088L16.5679 17.5685C16.484 17.4541 16.3854 17.3469 16.267 17.2468C15.4976 16.6035 14.2596 16.6035 13.5001 17.2468C13.4409 17.2969 13.3916 17.3469 13.3423 17.4041L3.18202 8.89788C3.28066 8.84069 3.37437 8.77636 3.45822 8.70488C4.2227 8.0687 4.21777 7.02508 3.45329 6.38175ZM0.272048 10.8922C0.602502 10.642 1.12038 10.6777 1.44097 10.9494L15.1129 22.3863L22.5062 16.1603C22.8268 15.8887 23.3496 15.8887 23.6702 16.1603C23.9957 16.432 23.9957 16.868 23.6751 17.1396L15.8182 23.7588C15.4335 24.0804 14.8071 24.0804 14.4224 23.7588L14.1462 23.53L13.9538 23.3656L0.242455 11.9001C-0.0879992 11.6141 -0.083067 11.1567 0.272048 10.8922Z" fill="black"/>
</g>
<defs>
<clipPath id="clip0_759_32396">
<rect width="24" height="24" fill="white"/>
</clipPath>
</defs>
</svg>
 