<svg width="16" height="16" viewBox="0 0 16 16" fill="none" xmlns="http://www.w3.org/2000/svg">
<g clip-path="url(#clip0_833_24955)">
<path d="M8.00045 3.55558C8.9823 3.55558 9.77824 2.75964 9.77824 1.77779C9.77824 0.795944 8.9823 0 8.00045 0C7.0186 0 6.22266 0.795944 6.22266 1.77779C6.22266 2.75964 7.0186 3.55558 8.00045 3.55558Z" fill="#CF2D39"/>
<path d="M8.00045 9.77779C8.9823 9.77779 9.77824 8.98185 9.77824 8C9.77824 7.01815 8.9823 6.22221 8.00045 6.22221C7.0186 6.22221 6.22266 7.01815 6.22266 8C6.22266 8.98185 7.0186 9.77779 8.00045 9.77779Z" fill="#CF2D39"/>
<path d="M8.00045 16C8.9823 16 9.77824 15.2041 9.77824 14.2222C9.77824 13.2404 8.9823 12.4444 8.00045 12.4444C7.0186 12.4444 6.22266 13.2404 6.22266 14.2222C6.22266 15.2041 7.0186 16 8.00045 16Z" fill="#CF2D39"/>
</g>
<defs>
<clipPath id="clip0_833_24955">
<rect width="16" height="16" fill="white"/>
</clipPath>
</defs>
</svg>
 