<svg width="29" height="29" viewBox="0 0 29 29" fill="none" xmlns="http://www.w3.org/2000/svg">
<path d="M14.5 5.4375C13.9998 5.4375 13.5938 5.0315 13.5938 4.53125V3.625C13.5938 3.12475 13.9998 2.71875 14.5 2.71875C15.0002 2.71875 15.4062 3.12475 15.4062 3.625V4.53125C15.4062 5.0315 15.0002 5.4375 14.5 5.4375Z" fill="black"/>
<path d="M22.409 13.3473C21.9087 13.3473 21.5027 12.9413 21.5027 12.441C21.5027 8.75802 18.5121 5.61968 14.8363 5.44568C11.1561 5.27576 7.87498 8.11005 7.52834 11.7718C7.50749 11.9906 7.49707 12.2154 7.49707 12.441C7.49707 12.9413 7.09107 13.3473 6.59082 13.3473C6.09057 13.3473 5.68457 12.9413 5.68457 12.441C5.68457 12.1583 5.69771 11.8755 5.72399 11.6009C6.16035 6.98993 10.2915 3.41749 14.922 3.63544C19.5502 3.8543 23.3152 7.80465 23.3152 12.441C23.3152 12.9417 22.9092 13.3473 22.409 13.3473Z" fill="black"/>
<path d="M24.1077 19.5279C23.8843 19.5279 23.66 19.4454 23.4846 19.28C22.2249 18.0874 21.5022 16.4081 21.5022 14.6731C21.5022 14.1728 21.9082 13.7668 22.4084 13.7668C22.9087 13.7668 23.3147 14.1728 23.3147 14.6731C23.3147 15.9124 23.8308 17.1123 24.7307 17.9637C25.0941 18.3076 25.11 18.8813 24.7661 19.2451C24.588 19.4327 24.3478 19.5279 24.1077 19.5279Z" fill="black"/>
<path d="M4.89142 19.5279C4.65081 19.5279 4.41111 19.4332 4.23303 19.2447C3.88911 18.8813 3.90497 18.3076 4.26837 17.9637C5.16828 17.1123 5.68439 15.9128 5.68439 14.6731C5.68439 14.1728 6.09039 13.7668 6.59064 13.7668C7.09089 13.7668 7.49689 14.1728 7.49689 14.6731C7.49689 16.409 6.77416 18.0883 5.51447 19.28C5.33866 19.4454 5.11481 19.5279 4.89142 19.5279Z" fill="black"/>
<path d="M14.5 26.2812C12.0441 26.2812 9.96875 24.2059 9.96875 21.75C9.96875 21.2498 10.3748 20.8438 10.875 20.8438C11.3752 20.8438 11.7812 21.2498 11.7812 21.75C11.7812 23.2236 13.0264 24.4688 14.5 24.4688C15.9736 24.4688 17.2188 23.2236 17.2188 21.75C17.2188 21.2498 17.6248 20.8438 18.125 20.8438C18.6252 20.8438 19.0312 21.2498 19.0312 21.75C19.0312 24.2059 16.9559 26.2812 14.5 26.2812Z" fill="black"/>
<path d="M6.13704 22.6567C5.03277 22.6567 4.0504 21.9815 3.63397 20.9366C3.2171 19.8904 3.46586 18.7236 4.2679 17.9641C4.6313 17.6198 5.20451 17.6356 5.54933 17.999C5.89326 18.3624 5.87785 18.9361 5.51444 19.2805C5.11751 19.6566 5.26341 20.1301 5.31779 20.266C5.37171 20.401 5.59057 20.8442 6.13704 20.8442C6.63729 20.8442 7.04329 21.2502 7.04329 21.7504C7.04329 22.2507 6.63774 22.6567 6.13704 22.6567Z" fill="black"/>
<path d="M22.8621 22.6562C22.3618 22.6562 21.9558 22.2502 21.9558 21.75C21.9558 21.2497 22.3618 20.8437 22.8621 20.8437C23.409 20.8437 23.6283 20.3988 23.6827 20.2624C23.7366 20.1269 23.882 19.6552 23.4851 19.2795C23.1217 18.9352 23.1058 18.362 23.4498 17.9981C23.7941 17.6347 24.3673 17.6188 24.7312 17.9628C25.5332 18.7222 25.7825 19.8881 25.3665 20.9325C24.9496 21.9797 23.9663 22.6562 22.8621 22.6562Z" fill="black"/>
<path d="M6.59033 15.5789C6.09008 15.5789 5.68408 15.1729 5.68408 14.6726V12.4406C5.68408 11.9403 6.09008 11.5343 6.59033 11.5343C7.09058 11.5343 7.49658 11.9403 7.49658 12.4406V14.6726C7.49658 15.1729 7.09104 15.5789 6.59033 15.5789Z" fill="black"/>
<path d="M22.4089 15.5789C21.9087 15.5789 21.5027 15.1729 21.5027 14.6726V12.4406C21.5027 11.9403 21.9087 11.5343 22.4089 11.5343C22.9092 11.5343 23.3152 11.9403 23.3152 12.4406V14.6726C23.3152 15.1729 22.9092 15.5789 22.4089 15.5789Z" fill="black"/>
<path d="M22.862 22.6562H6.13721C5.63696 22.6562 5.23096 22.2502 5.23096 21.75C5.23096 21.2498 5.63696 20.8438 6.13721 20.8438H22.8616C23.3618 20.8438 23.7678 21.2498 23.7678 21.75C23.7678 22.2502 23.3623 22.6562 22.862 22.6562Z" fill="black"/>
</svg>
 