<svg width="27" height="22" viewBox="0 0 27 22" fill="none" xmlns="http://www.w3.org/2000/svg">
<path d="M22.9455 0.6875H4.1295C2.3655 0.6875 0.9375 2.28125 0.9375 4.25V17.75C0.9375 19.7188 2.3655 21.3125 4.1295 21.3125H22.9455C24.7095 21.3125 26.1375 19.7188 26.1375 17.75V4.25C26.1375 2.28125 24.7095 0.6875 22.9455 0.6875ZM24.4575 17.75C24.4575 18.6781 23.7771 19.4375 22.9455 19.4375H4.1295C3.2979 19.4375 2.6175 18.6781 2.6175 17.75V4.25C2.6175 3.32188 3.2979 2.5625 4.1295 2.5625H22.9455C23.7771 2.5625 24.4575 3.32188 24.4575 4.25V17.75Z" fill="black"/>
<path d="M8.49749 15.6875H5.13749C4.67364 15.6875 4.29749 16.1073 4.29749 16.625C4.29749 17.1427 4.67364 17.5625 5.13749 17.5625H8.49749C8.96133 17.5625 9.33749 17.1427 9.33749 16.625C9.33749 16.1073 8.96133 15.6875 8.49749 15.6875Z" fill="black"/>
<path d="M21.9375 5.375H5.13749C4.67364 5.375 4.29749 5.79481 4.29749 6.3125C4.29749 6.83019 4.67364 7.25 5.13749 7.25H21.9375C22.4013 7.25 22.7775 6.83019 22.7775 6.3125C22.7775 5.79481 22.4013 5.375 21.9375 5.375Z" fill="black"/>
</svg>
