<svg width="98" height="82" viewBox="0 0 98 82" fill="none" xmlns="http://www.w3.org/2000/svg">
<rect width="98" height="82" rx="19" fill="#EDF3F3"/>
<path fill-rule="evenodd" clip-rule="evenodd" d="M35 30.5838C35 28.6045 36.3929 27 38.1111 27H44.3333C46.0516 27 47.4444 28.6045 47.4444 30.5838V35.9594C47.4444 37.9387 46.0516 39.5431 44.3333 39.5431H38.1111C36.3929 39.5431 35 37.9387 35 35.9594V30.5838ZM38.1111 28.7919H44.3333C45.1924 28.7919 45.8889 29.5941 45.8889 30.5838V35.9594C45.8889 36.949 45.1924 37.7513 44.3333 37.7513H38.1111C37.252 37.7513 36.5556 36.949 36.5556 35.9594V30.5838C36.5556 29.5941 37.252 28.7919 38.1111 28.7919Z" fill="black"/>
<path fill-rule="evenodd" clip-rule="evenodd" d="M50.5556 30.5838C50.5556 28.6045 51.9484 27 53.6667 27H59.8889C61.6072 27 63 28.6045 63 30.5838V35.9594C63 37.9387 61.6072 39.5431 59.8889 39.5431H53.6667C51.9484 39.5431 50.5556 37.9387 50.5556 35.9594V30.5838ZM53.6667 28.7919H59.8889C60.7481 28.7919 61.4445 29.5941 61.4445 30.5838V35.9594C61.4445 36.949 60.7481 37.7513 59.8889 37.7513H53.6667C52.8076 37.7513 52.1112 36.949 52.1112 35.9594V30.5838C52.1112 29.5941 52.8076 28.7919 53.6667 28.7919Z" fill="black"/>
<path fill-rule="evenodd" clip-rule="evenodd" d="M38.1111 43.127C36.3929 43.127 35 44.7314 35 46.7107V52.0863C35 54.0656 36.3929 55.6701 38.1111 55.6701H44.3333C46.0516 55.6701 47.4444 54.0656 47.4444 52.0863V46.7107C47.4444 44.7314 46.0516 43.127 44.3333 43.127H38.1111ZM44.3333 44.9188H38.1111C37.252 44.9188 36.5556 45.7211 36.5556 46.7107V52.0863C36.5556 53.076 37.252 53.8782 38.1111 53.8782H44.3333C45.1924 53.8782 45.8889 53.076 45.8889 52.0863V46.7107C45.8889 45.7211 45.1924 44.9188 44.3333 44.9188Z" fill="black"/>
<path fill-rule="evenodd" clip-rule="evenodd" d="M50.5556 46.7107C50.5556 44.7314 51.9484 43.127 53.6667 43.127H59.8889C61.6072 43.127 63 44.7314 63 46.7107V52.0863C63 54.0656 61.6072 55.6701 59.8889 55.6701H53.6667C51.9484 55.6701 50.5556 54.0656 50.5556 52.0863V46.7107ZM53.6667 44.9188H59.8889C60.7481 44.9188 61.4445 45.7211 61.4445 46.7107V52.0863C61.4445 53.076 60.7481 53.8782 59.8889 53.8782H53.6667C52.8076 53.8782 52.1112 53.076 52.1112 52.0863V46.7107C52.1112 45.7211 52.8076 44.9188 53.6667 44.9188Z" fill="black"/>
</svg>
