<svg width="17" height="17" viewBox="0 0 17 17" fill="none" xmlns="http://www.w3.org/2000/svg">
<path fill-rule="evenodd" clip-rule="evenodd" d="M0 2.08374C0 0.932921 0.809884 0 1.80893 0H5.42678C6.42585 0 7.23571 0.932921 7.23571 2.08374V5.20935C7.23571 6.3602 6.42585 7.29309 5.42678 7.29309H1.80893C0.809884 7.29309 0 6.3602 0 5.20935V2.08374ZM1.80893 1.04187H5.42678C5.9263 1.04187 6.33125 1.50834 6.33125 2.08374V5.20935C6.33125 5.78475 5.9263 6.25122 5.42678 6.25122H1.80893C1.30941 6.25122 0.904464 5.78475 0.904464 5.20935V2.08374C0.904464 1.50834 1.30941 1.04187 1.80893 1.04187Z" fill="#CF2D39"/>
<path fill-rule="evenodd" clip-rule="evenodd" d="M9.04517 2.08374C9.04517 0.932921 9.85502 0 10.8541 0H14.4719C15.471 0 16.2809 0.932921 16.2809 2.08374V5.20935C16.2809 6.3602 15.471 7.29309 14.4719 7.29309H10.8541C9.85502 7.29309 9.04517 6.3602 9.04517 5.20935V2.08374ZM10.8541 1.04187H14.4719C14.9715 1.04187 15.3764 1.50834 15.3764 2.08374V5.20935C15.3764 5.78475 14.9715 6.25122 14.4719 6.25122H10.8541C10.3546 6.25122 9.94963 5.78475 9.94963 5.20935V2.08374C9.94963 1.50834 10.3546 1.04187 10.8541 1.04187Z" fill="#CF2D39"/>
<path fill-rule="evenodd" clip-rule="evenodd" d="M1.80893 9.37695C0.809884 9.37695 0 10.3098 0 11.4607V14.5863C0 15.7371 0.809884 16.67 1.80893 16.67H5.42678C6.42585 16.67 7.23571 15.7371 7.23571 14.5863V11.4607C7.23571 10.3098 6.42585 9.37695 5.42678 9.37695H1.80893ZM5.42678 10.4188H1.80893C1.30941 10.4188 0.904464 10.8853 0.904464 11.4607V14.5863C0.904464 15.1617 1.30941 15.6282 1.80893 15.6282H5.42678C5.9263 15.6282 6.33125 15.1617 6.33125 14.5863V11.4607C6.33125 10.8853 5.9263 10.4188 5.42678 10.4188Z" fill="#CF2D39"/>
<path fill-rule="evenodd" clip-rule="evenodd" d="M9.04517 11.4607C9.04517 10.3098 9.85502 9.37695 10.8541 9.37695H14.4719C15.471 9.37695 16.2809 10.3098 16.2809 11.4607V14.5863C16.2809 15.7371 15.471 16.67 14.4719 16.67H10.8541C9.85502 16.67 9.04517 15.7371 9.04517 14.5863V11.4607ZM10.8541 10.4188H14.4719C14.9715 10.4188 15.3764 10.8853 15.3764 11.4607V14.5863C15.3764 15.1617 14.9715 15.6282 14.4719 15.6282H10.8541C10.3546 15.6282 9.94963 15.1617 9.94963 14.5863V11.4607C9.94963 10.8853 10.3546 10.4188 10.8541 10.4188Z" fill="#CF2D39"/>
</svg>
