<svg width="25" height="25" viewBox="0 0 25 25" fill="none" xmlns="http://www.w3.org/2000/svg">
<path d="M21.8012 1.69518C21.7238 1.50192 21.5902 1.3363 21.4177 1.2197C21.2452 1.10309 21.0417 1.04086 20.8335 1.04102H4.16687C3.95866 1.04086 3.75519 1.10309 3.5827 1.2197C3.41021 1.3363 3.27661 1.50192 3.19916 1.69518L1.11583 6.90352C1.06701 7.02688 1.04192 7.15835 1.04187 7.29102V22.916C1.04187 23.1923 1.15162 23.4572 1.34697 23.6526C1.54232 23.8479 1.80727 23.9577 2.08354 23.9577H22.9169C23.1931 23.9577 23.4581 23.8479 23.6534 23.6526C23.8488 23.4572 23.9585 23.1923 23.9585 22.916V7.29102C23.9585 7.15835 23.9334 7.02688 23.8846 6.90352L21.8012 1.69518ZM4.87208 3.12435H20.1283L21.3783 6.24935H3.62208L4.87208 3.12435ZM3.1252 21.8744V8.33268H21.8752V21.8744H3.1252Z" fill="black"/>
<path d="M10.4165 17.709H6.2498C5.97353 17.709 5.70858 17.8187 5.51323 18.0141C5.31788 18.2094 5.20813 18.4744 5.20813 18.7507C5.20813 19.0269 5.31788 19.2919 5.51323 19.4872C5.70858 19.6826 5.97353 19.7923 6.2498 19.7923H10.4165C10.6927 19.7923 10.9577 19.6826 11.153 19.4872C11.3484 19.2919 11.4581 19.0269 11.4581 18.7507C11.4581 18.4744 11.3484 18.2094 11.153 18.0141C10.9577 17.8187 10.6927 17.709 10.4165 17.709Z" fill="black"/>
</svg>
