<svg width="50" height="50" viewBox="0 0 50 50" fill="none" xmlns="http://www.w3.org/2000/svg">
<rect width="50" height="50" fill="#CF2D39" fillOpacity="0.02"/>
<path d="M43.6025 3.39207C43.4476 3.00555 43.1804 2.67431 42.8354 2.4411C42.4904 2.2079 42.0835 2.08342 41.6671 2.08374H8.33374C7.91733 2.08342 7.51038 2.2079 7.16539 2.4411C6.82041 2.67431 6.55323 3.00555 6.39832 3.39207L2.23166 13.8087C2.13402 14.0555 2.08384 14.3184 2.08374 14.5837V45.8337C2.08374 46.3863 2.30323 46.9162 2.69393 47.3069C3.08464 47.6976 3.61454 47.9171 4.16707 47.9171H45.8337C46.3863 47.9171 46.9162 47.6976 47.3069 47.3069C47.6976 46.9162 47.9171 46.3863 47.9171 45.8337V14.5837C47.917 14.3184 47.8668 14.0555 47.7692 13.8087L43.6025 3.39207ZM9.74416 6.25041H40.2567L42.7567 12.5004H7.24416L9.74416 6.25041ZM6.25041 43.7504V16.6671H43.7504V43.7504H6.25041Z" fill="#CF2D39" fillOpacity="1"/>
<path d="M20.8329 35.4163H12.4996C11.9471 35.4163 11.4172 35.6358 11.0265 36.0265C10.6358 36.4172 10.4163 36.9471 10.4163 37.4996C10.4163 38.0521 10.6358 38.582 11.0265 38.9727C11.4172 39.3634 11.9471 39.5829 12.4996 39.5829H20.8329C21.3855 39.5829 21.9154 39.3634 22.3061 38.9727C22.6968 38.582 22.9163 38.0521 22.9163 37.4996C22.9163 36.9471 22.6968 36.4172 22.3061 36.0265C21.9154 35.6358 21.3855 35.4163 20.8329 35.4163Z" fill="#CF2D39" fillOpacity="1"/>
</svg>
 