<svg width="50" height="50" viewBox="0 0 50 50" fill="none" xmlns="http://www.w3.org/2000/svg">
<g clip-path="url(#clip0_912_28062)">
<path d="M17.008 16.666C15.8012 16.6471 14.6385 16.2097 13.7184 15.4285C11.7994 13.6685 10.6368 11.2335 10.4747 8.63471C9.96843 3.44096 12.8018 0.376376 15.8622 0.0347094C16.5996 -0.0470477 17.3459 0.0203788 18.0567 0.232976C18.7675 0.445573 19.4283 0.798996 19.9997 1.27221C20.8521 2.04061 21.5442 2.96997 22.0362 4.00683C22.5282 5.04369 22.8103 6.16759 22.8663 7.31388C23.333 12.1555 21.0997 16.666 17.008 16.666ZM16.3247 4.16596C15.1226 4.29929 14.4059 6.00554 14.6226 8.22013C14.683 9.7079 15.2966 11.1195 16.3434 12.1785C16.5417 12.3733 16.8053 12.4876 17.083 12.4993C17.8143 12.418 18.9913 10.5389 18.7143 7.70763C18.0018 3.82013 16.3768 4.16596 16.3247 4.17638V4.16596ZM6.59135 29.166C5.38456 29.1471 4.22178 28.7097 3.30176 27.9285C1.38273 26.1685 0.220123 23.7335 0.0580132 21.1347C-0.448237 15.941 2.3851 12.8764 5.44551 12.5347C6.18287 12.4539 6.92895 12.5218 7.63962 12.7343C8.35028 12.9469 9.01111 13.2998 9.58301 13.7722C10.4355 14.5406 11.1276 15.47 11.6196 16.5068C12.1115 17.5437 12.3936 18.6676 12.4497 19.8139C12.9163 24.6555 10.5768 29.166 6.59135 29.166ZM5.90801 16.666C4.70593 16.7993 3.98926 18.5055 4.20593 20.7201C4.26629 22.2079 4.87997 23.6195 5.92676 24.6785C6.12703 24.8704 6.3894 24.9842 6.66635 24.9993C7.3976 24.918 8.57468 23.0389 8.2976 20.2076C7.74551 16.3993 5.9601 16.666 5.90801 16.6764V16.666ZM32.9913 16.666C29.433 16.691 26.6705 12.1535 27.1434 7.30763C27.1995 6.16134 27.4816 5.03744 27.9736 4.00058C28.4655 2.96372 29.1576 2.03436 30.0101 1.26596C30.581 0.795583 31.2403 0.4443 31.9491 0.232834C32.6579 0.0213675 33.4019 -0.0459986 34.1372 0.0347094C37.1976 0.376376 40.0309 3.44096 39.5247 8.63471C39.3631 11.2343 38.2005 13.6701 36.2809 15.4305C35.3606 16.211 34.1979 16.6477 32.9913 16.666ZM31.2913 7.70763C31.0143 10.5305 32.1913 12.4097 32.9226 12.4993C33.1951 12.4886 33.4549 12.3815 33.6559 12.1972C34.7027 11.1383 35.3164 9.72665 35.3768 8.23888C35.8143 2.77846 31.6663 3.13471 31.2913 7.70763ZM43.408 29.166C39.5288 29.166 37.0872 24.6535 37.5601 19.8076C37.6161 18.6613 37.8983 17.5374 38.3902 16.5006C38.8822 15.4637 39.5743 14.5344 40.4268 13.766C40.9968 13.2939 41.6558 12.9411 42.3647 12.7285C43.0737 12.5159 43.8181 12.4479 44.5538 12.5285C47.6143 12.8701 50.4476 15.9347 49.9413 21.1285C49.7798 23.728 48.6171 26.1638 46.6976 27.9243C45.7781 28.707 44.6153 29.1459 43.408 29.166ZM41.708 20.2076C41.4309 23.0305 42.608 24.9097 43.3393 24.9993C43.611 24.985 43.8696 24.8784 44.0726 24.6972C45.1194 23.6383 45.7331 22.2266 45.7934 20.7389C46.0018 18.5243 45.2934 16.818 44.0913 16.6847C44.0393 16.666 41.9059 16.4805 41.708 20.2076ZM33.333 49.9993C31.5522 50.0349 29.7935 49.5993 28.2351 48.7368C27.2376 48.2113 26.1271 47.9367 24.9997 47.9367C23.8722 47.9367 22.7618 48.2113 21.7643 48.7368C15.4872 52.2555 8.17051 48.3889 8.33301 39.5826C8.33301 29.9264 17.7226 20.8326 24.9997 20.8326C32.2768 20.8326 41.6663 29.9243 41.6663 39.5826C41.6663 45.716 38.2393 49.9993 33.333 49.9993ZM24.9997 43.7493C26.7802 43.7143 28.5385 44.149 30.0976 45.0097C34.758 47.5472 37.5726 44.1076 37.4997 39.5826C37.4997 32.541 30.1643 24.9993 24.9997 24.9993C19.8351 24.9993 12.4997 32.541 12.4997 39.5826C12.433 44.1014 15.2247 47.5472 19.9018 45.0097C21.4608 44.149 23.2192 43.7143 24.9997 43.7493Z" fill="black" fillOpacity="0.5"/>
</g>
<defs>
<clipPath id="clip0_912_28062">
<rect width="50" height="50" fill="white"/>
</clipPath>
</defs>
</svg>
 