<svg width="20" height="20" viewBox="0 0 20 20" fill="none" xmlns="http://www.w3.org/2000/svg">
<g clip-path="url(#clip0_899_36092)">
<path d="M19.0162 14.4094C18.9632 14.2091 18.8688 14.0222 18.7391 13.8608C18.6093 13.6993 18.4472 13.5668 18.2631 13.4719L14.3975 11.4687C14.0855 11.3034 13.7246 11.2556 13.3804 11.3342C13.0362 11.4128 12.7317 11.6125 12.5225 11.8969L11.8975 12.7531C11.8654 12.7976 11.8181 12.8288 11.7646 12.8409C11.7111 12.853 11.655 12.8451 11.6068 12.8187C10.6877 12.2957 9.84623 11.6467 9.10684 10.8906C8.35077 10.1512 7.70179 9.30974 7.17872 8.39062C7.15234 8.34251 7.14445 8.28642 7.15654 8.23289C7.16862 8.17937 7.19985 8.13211 7.24434 8.1L8.09747 7.475C8.38184 7.26577 8.58153 6.96129 8.66012 6.61709C8.73872 6.2729 8.69097 5.91192 8.52559 5.6L6.53497 1.7375C6.43937 1.55314 6.306 1.391 6.14355 1.26164C5.98109 1.13228 5.79321 1.0386 5.59213 0.986709C5.39105 0.934818 5.18129 0.925879 4.97653 0.960476C4.77176 0.995072 4.57659 1.07243 4.40372 1.1875L1.97559 2.8125C1.63465 3.03952 1.35934 3.35214 1.17725 3.71906C0.995163 4.08598 0.912691 4.4943 0.938094 4.90312C0.970231 5.59435 1.0633 6.28139 1.21622 6.95625C1.87559 9.5 3.46622 12.1156 5.67559 14.3281C7.88497 16.5406 10.5037 18.125 13.0475 18.7781C13.7223 18.931 14.4094 19.0241 15.1006 19.0562H15.2568C15.6382 19.0554 16.0136 18.9613 16.3502 18.7821C16.6868 18.6029 16.9745 18.344 17.1881 18.0281L18.8068 15.6C18.9237 15.4275 19.0027 15.2323 19.0388 15.0271C19.0749 14.8219 19.0672 14.6114 19.0162 14.4094ZM17.7662 14.9031L16.1568 17.3344C16.05 17.4921 15.9039 17.6191 15.7329 17.703C15.5619 17.7868 15.3719 17.8246 15.1818 17.8125C14.5688 17.7842 13.9593 17.7037 13.36 17.5719C11.0287 16.9656 8.61622 15.5 6.56309 13.4375C4.50997 11.375 3.03809 8.97187 2.43184 6.64062C2.29894 6.04137 2.21739 5.43187 2.18809 4.81875C2.17561 4.62906 2.21321 4.43942 2.29712 4.26884C2.38104 4.09826 2.50833 3.95274 2.66622 3.84687L5.09434 2.22812C5.13131 2.20338 5.17486 2.19031 5.21934 2.19062H5.27872C5.30949 2.19864 5.33821 2.2131 5.36299 2.23303C5.38777 2.25296 5.40804 2.27791 5.42247 2.30625L7.42247 6.17187C7.44733 6.21981 7.45437 6.27501 7.44236 6.32765C7.43034 6.3803 7.40004 6.42697 7.35684 6.45937L6.50372 7.08437C6.21443 7.2996 6.01399 7.61334 5.94029 7.9663C5.86659 8.31926 5.92473 8.68699 6.10372 9C6.68212 10.011 7.39719 10.9375 8.22872 11.7531C9.04432 12.5847 9.97077 13.2998 10.9818 13.8781C11.2949 14.0571 11.6626 14.1153 12.0155 14.0416C12.3685 13.9679 12.6822 13.7674 12.8975 13.4781L13.5225 12.6219C13.5549 12.5787 13.6015 12.5484 13.6542 12.5364C13.7068 12.5243 13.762 12.5314 13.81 12.5562L17.6756 14.5562C17.7039 14.5711 17.7288 14.5916 17.7486 14.6167C17.7684 14.6417 17.7828 14.6706 17.7907 14.7015C17.7987 14.7325 17.8001 14.7647 17.7948 14.7962C17.7895 14.8277 17.7776 14.8578 17.76 14.8844L17.7662 14.9031Z" fill="#CF2D39"/>
</g>
<defs>
<clipPath id="clip0_899_36092">
<rect width="20" height="20" fill="white"/>
</clipPath>
</defs>
</svg>
 