<svg width="24" height="24" viewBox="0 0 24 24" fill="none" xmlns="http://www.w3.org/2000/svg">
<path d="M12.0005 5.15918C9.54372 5.15918 7.54492 7.15798 7.54492 9.61479C7.54492 12.0716 9.54372 14.0704 12.0005 14.0704C14.4573 14.0704 16.4561 12.0716 16.4561 9.61479C16.4561 7.15798 14.4574 5.15918 12.0005 5.15918ZM12.0005 12.1944C10.5782 12.1944 9.42095 11.0372 9.42095 9.61479C9.42095 8.19241 10.5782 7.03521 12.0005 7.03521C13.4229 7.03521 14.5801 8.19241 14.5801 9.61479C14.5801 11.0372 13.4229 12.1944 12.0005 12.1944Z" fill="black" fillOpacity="0.2"/>
<path d="M11.9995 0C6.69792 0 2.38477 4.3132 2.38477 9.61477V9.88055C2.38477 12.5618 3.92198 15.6863 6.95386 19.1671C9.15173 21.6905 11.3189 23.45 11.41 23.5237L11.9995 24L12.589 23.5237C12.6802 23.45 14.8474 21.6905 17.0452 19.1671C20.077 15.6863 21.6143 12.5618 21.6143 9.88059V9.61481C21.6143 4.3132 17.3011 0 11.9995 0ZM19.7383 9.88059C19.7383 14.4118 13.8999 19.8968 11.9995 21.5619C10.0986 19.8963 4.2608 14.4114 4.2608 9.88059V9.61481C4.2608 5.34769 7.73241 1.87608 11.9995 1.87608C16.2667 1.87608 19.7383 5.34769 19.7383 9.61481V9.88059Z" fill="black" fillOpacity="0.2"/>
</svg>
 