<svg width="24" height="24" viewBox="0 0 24 24" fill="none" xmlns="http://www.w3.org/2000/svg">
<g clip-path="url(#clip0_827_24470)">
<path d="M12 0C5.36761 0 0 5.367 0 12C0 18.6323 5.367 24 12 24C18.6324 24 24 18.633 24 12C24 5.36761 18.633 0 12 0ZM12 22.3256C6.30647 22.3256 1.67442 17.6936 1.67442 12C1.67442 6.30642 6.30647 1.67442 12 1.67442C17.6936 1.67442 22.3256 6.30642 22.3256 12C22.3256 17.6936 17.6936 22.3256 12 22.3256Z" fill="black"/>
<path d="M11.6448 15.1839C10.9814 15.1839 10.4443 15.7368 10.4443 16.4002C10.4443 17.0478 10.9656 17.6165 11.6448 17.6165C12.324 17.6165 12.861 17.0478 12.861 16.4002C12.861 15.7368 12.3082 15.1839 11.6448 15.1839Z" fill="black"/>
<path d="M11.85 5.97511C9.71759 5.97511 8.73828 7.23882 8.73828 8.09175C8.73828 8.70778 9.25953 8.99213 9.686 8.99213C10.539 8.99213 10.1915 7.77582 11.8026 7.77582C12.5924 7.77582 13.2243 8.12335 13.2243 8.84996C13.2243 9.70289 12.3397 10.1926 11.8184 10.6348C11.3603 11.0296 10.7601 11.6773 10.7601 13.0358C10.7601 13.8571 10.9813 14.0941 11.6289 14.0941C12.4028 14.0941 12.5608 13.7466 12.5608 13.4464C12.5608 12.625 12.5766 12.1512 13.4454 11.472C13.8718 11.1403 15.2144 10.0661 15.2144 8.58136C15.2144 7.0966 13.8718 5.97511 11.85 5.97511Z" fill="black"/>
</g>
<defs>
<clipPath id="clip0_827_24470">
<rect width="24" height="24" fill="white"/>
</clipPath>
</defs>
</svg>
 