<svg width="24" height="24" viewBox="0 0 24 24" fill="none" xmlns="http://www.w3.org/2000/svg">
<path d="M7.72938 7.4402H12.2264C12.6983 7.4402 13.0807 7.05767 13.0807 6.58582C13.0807 6.11398 12.6983 5.73145 12.2264 5.73145H7.72938C7.25753 5.73145 6.875 6.11398 6.875 6.58582C6.875 7.05755 7.25753 7.4402 7.72938 7.4402Z" fill="black"/>
<path d="M16.2664 9.34033H7.72938C7.25753 9.34033 6.875 9.72286 6.875 10.1947C6.875 10.6666 7.25753 11.0491 7.72938 11.0491H16.2664C16.7384 11.0491 17.1208 10.6666 17.1208 10.1947C17.1208 9.72286 16.7384 9.34033 16.2664 9.34033Z" fill="black"/>
<path d="M7.72938 14.6589H13.8088C14.2807 14.6589 14.6632 14.2764 14.6632 13.8046C14.6632 13.3327 14.2807 12.9502 13.8088 12.9502H7.72938C7.25753 12.9502 6.875 13.3327 6.875 13.8046C6.875 14.2764 7.25753 14.6589 7.72938 14.6589Z" fill="black"/>
<path d="M16.2664 16.5596H7.72938C7.25753 16.5596 6.875 16.9421 6.875 17.4139C6.875 17.8858 7.25753 18.2683 7.72938 18.2683H16.2664C16.7384 18.2683 17.1208 17.8858 17.1208 17.4139C17.1208 16.9421 16.7384 16.5596 16.2664 16.5596Z" fill="black"/>
<path d="M19.8685 2.06691L18.052 0.250275C17.8918 0.0899943 17.6745 0 17.4479 0C17.2213 0 17.0039 0.0899943 16.8437 0.250275L15.6314 1.46269L14.4189 0.250275C14.2587 0.0899943 14.0413 0 13.8147 0C13.5882 0 13.3708 0.0899943 13.2105 0.250275L11.9983 1.46258L10.7864 0.250275C10.6261 0.0899943 10.4087 0 10.182 0C9.95546 0 9.7381 0.0899943 9.57782 0.250389L8.36609 1.46258L7.15379 0.250275C6.99362 0.0899943 6.77627 0 6.54969 0C6.32311 0 6.10575 0.0899943 5.94547 0.250275L4.12907 2.06691C3.9689 2.22707 3.87891 2.44443 3.87891 2.67101V21.3294C3.87891 21.556 3.96901 21.7734 4.12918 21.9337L5.94559 23.7497C6.27913 24.0834 6.82001 24.0833 7.15367 23.7497L8.3662 22.5374L9.57885 23.7497C9.73913 23.9099 9.95648 23.9999 10.1831 23.9999C10.4096 23.9999 10.627 23.9098 10.7872 23.7495L11.9986 22.5377L13.2107 23.7496C13.5443 24.0833 14.0852 24.0832 14.4188 23.7496L15.6315 22.5374L16.8439 23.7496C17.0107 23.9164 17.2294 23.9998 17.448 23.9998C17.6666 23.9998 17.8853 23.9164 18.0521 23.7496L19.8685 21.9335C20.0288 21.7734 20.1188 21.556 20.1188 21.3293V2.67101C20.1187 2.44443 20.0287 2.22719 19.8685 2.06691ZM18.4099 20.9755L17.4479 21.9374L16.2355 20.7252C15.9017 20.3916 15.361 20.3917 15.0274 20.7252L13.8148 21.9374L12.6025 20.7252C12.4423 20.565 12.225 20.475 11.9983 20.4751C11.7717 20.4751 11.5544 20.5651 11.3942 20.7255L10.1828 21.9373L8.97042 20.7252C8.63676 20.3917 8.09599 20.3917 7.76233 20.7252L6.5498 21.9374L5.58777 20.9755V3.02495L6.5498 2.06269L7.7621 3.27511C7.92238 3.43539 8.13974 3.52538 8.36632 3.52538C8.59301 3.52538 8.81025 3.43528 8.97053 3.275L10.1823 2.06281L11.3942 3.27511C11.5544 3.43539 11.7717 3.52538 11.9984 3.52538C12.2251 3.52538 12.4424 3.43539 12.6027 3.27511L13.8148 2.06269L15.0274 3.27511C15.1877 3.43539 15.4049 3.52538 15.6316 3.52538C15.8582 3.52538 16.0755 3.43539 16.2358 3.27511L17.4481 2.06269L18.4101 3.02483V20.9755H18.4099Z" fill="black"/>
</svg>
 