<svg width="18" height="18" viewBox="0 0 18 18" fill="none" xmlns="http://www.w3.org/2000/svg">
<path d="M17.7588 6.58788L11.354 0.217183C11.0629 -0.0723943 10.6262 -0.0723943 10.3351 0.217183L8.00603 2.5338C7.64212 2.89577 7.78768 3.33014 8.00603 3.54732L8.5155 4.05408L6.33204 6.22591C5.24031 6.00873 2.25624 5.50197 0.655038 7.09464C0.36391 7.38422 0.36391 7.81859 0.655038 8.10816L4.80362 12.2346L0.218346 16.7955C-0.0727821 17.0851 -0.0727821 17.5194 0.218346 17.809C0.509474 18.0986 1.01895 18.0262 1.2373 17.809L5.82256 13.2482L9.97114 17.3746C10.4078 17.7366 10.8445 17.5918 10.9901 17.3746C12.5913 15.782 12.0818 12.8138 11.8635 11.7279L14.0469 9.55605L14.5564 10.0628C14.8475 10.3524 15.2842 10.3524 15.5754 10.0628L17.9044 7.74619C18.0499 7.31183 18.0499 6.87746 17.7588 6.58788ZM14.9203 8.39774L14.4108 7.89098C14.1197 7.6014 13.683 7.6014 13.3919 7.89098L10.4078 10.9315C10.1895 11.1487 10.1167 11.3659 10.1895 11.6555C10.4078 12.4518 10.7717 14.4065 10.1895 15.7096L2.18346 7.74619C3.42076 7.16704 5.45865 7.52901 6.25926 7.74619C6.4776 7.81859 6.76873 7.74619 6.98708 7.52901L9.97114 4.56084C10.4078 4.12648 10.1895 3.76451 9.97114 3.54732L9.46167 3.04056L10.8445 1.73746L16.2304 7.09464L14.9203 8.39774Z" fill="black"/>
</svg>
