<svg width="180" height="180" viewBox="0 0 98 82" fill="none" xmlns="http://www.w3.org/2000/svg">
<rect width="98" height="82" rx="19" fill="#EDF3F3"/>
<path d="M58.0465 61.0622H40.9502C39.0168 61.134 37.1332 60.44 35.7087 59.1309C34.2841 57.8219 33.4336 56.0035 33.3421 54.071V44.906C33.3421 44.5164 33.4968 44.1429 33.7723 43.8674C34.0477 43.592 34.4213 43.4372 34.8108 43.4372C35.2004 43.4372 35.574 43.592 35.8494 43.8674C36.1249 44.1429 36.2796 44.5164 36.2796 44.906V54.071C36.3699 55.2246 36.9103 56.2964 37.7842 57.0549C38.6582 57.8134 39.7954 58.1977 40.9502 58.1247H58.0465C59.2013 58.1977 60.3385 57.8134 61.2125 57.0549C62.0864 56.2964 62.6268 55.2246 62.7171 54.071V44.906C62.7171 44.5164 62.8718 44.1429 63.1473 43.8674C63.4227 43.592 63.7963 43.4372 64.1858 43.4372C64.5754 43.4372 64.949 43.592 65.2244 43.8674C65.4999 44.1429 65.6546 44.5164 65.6546 44.906V54.071C65.5631 56.0035 64.7126 57.8219 63.288 59.1309C61.8635 60.44 59.9798 61.134 58.0465 61.0622ZM69.6349 41.5425C69.7726 41.406 69.8818 41.2436 69.9564 41.0646C70.031 40.8856 70.0694 40.6936 70.0694 40.4997C70.0694 40.3058 70.031 40.1139 69.9564 39.9349C69.8818 39.7559 69.7726 39.5935 69.6349 39.4569L50.5412 20.3632C50.4046 20.2255 50.2422 20.1162 50.0632 20.0417C49.8842 19.9671 49.6922 19.9287 49.4983 19.9287C49.3045 19.9287 49.1125 19.9671 48.9335 20.0417C48.7545 20.1162 48.5921 20.2255 48.4555 20.3632L29.3618 39.4569C29.0852 39.7335 28.9298 40.1086 28.9298 40.4997C28.9298 40.8909 29.0852 41.266 29.3618 41.5425C29.6384 41.8191 30.0135 41.9745 30.4046 41.9745C30.7957 41.9745 31.1708 41.8191 31.4474 41.5425L49.4983 23.4769L67.5493 41.5425C67.6858 41.6802 67.8483 41.7895 68.0272 41.864C68.2062 41.9386 68.3982 41.977 68.5921 41.977C68.786 41.977 68.978 41.9386 69.1569 41.864C69.3359 41.7895 69.4984 41.6802 69.6349 41.5425Z" fill="black"/>
</svg>
