<svg width="24" height="24" viewBox="0 0 24 24" fill="none" xmlns="http://www.w3.org/2000/svg">
<path d="M20.5963 13.2546C20.6225 13.0617 20.6405 12.8668 20.6405 12.6686V12.5526C20.6405 10.1819 19.7491 7.95328 18.1752 6.23992H19.2005C19.5981 6.23992 19.9205 5.9176 19.9205 5.51992V2.63992C19.9205 2.24224 19.5981 1.91992 19.2005 1.91992H18.6504C17.5389 1.91992 16.5261 2.46184 15.9113 3.35992H14.1605C13.7628 3.35992 13.4405 3.68224 13.4405 4.07992C13.4405 4.4776 13.7628 4.79992 14.1605 4.79992H15.6005V5.51992V11.2799C15.6005 12.868 14.3085 14.1599 12.7205 14.1599H11.2805V11.1472C12.1166 10.8491 12.7205 10.0574 12.7205 9.11992C12.7205 7.9288 11.7516 6.95992 10.5605 6.95992H5.52047C4.32935 6.95992 3.36047 7.9288 3.36047 9.11992C3.36047 9.76048 3.64631 10.3307 4.09079 10.7267C2.69159 11.5331 1.85039 12.761 1.35383 13.8645C0.490309 15.783 0.480469 17.68 0.480469 17.7599C0.480469 18.1576 0.802789 18.4799 1.20047 18.4799H2.64047C2.64047 20.465 4.25543 22.0799 6.24047 22.0799C8.22551 22.0799 9.84047 20.465 9.84047 18.4799H14.8805C14.8805 20.465 16.4954 22.0799 18.4805 22.0799C20.4655 22.0799 22.0805 20.465 22.0805 18.4799H22.8005C23.1981 18.4799 23.5205 18.1576 23.5205 17.7599C23.5205 15.6455 22.4599 14.0411 20.5963 13.2546ZM20.1667 14.6337C21.0021 15.0186 21.8088 15.7252 22.0245 17.0399H18.0585L19.3752 15.7233C19.6997 15.3988 19.9634 15.0306 20.1667 14.6337ZM18.4805 3.36736V4.79992H17.0405V4.26424C17.352 3.75088 17.8829 3.4204 18.4805 3.36736ZM5.52047 9.83992C5.12351 9.83992 4.80047 9.51688 4.80047 9.11992C4.80047 8.72296 5.12351 8.39992 5.52047 8.39992H10.5605C10.9574 8.39992 11.2805 8.72296 11.2805 9.11992C11.2805 9.51688 10.9574 9.83992 10.5605 9.83992H7.68047C7.68023 9.83992 7.68023 9.83992 7.67951 9.83992H5.52047ZM6.24047 20.6399C5.04935 20.6399 4.08047 19.671 4.08047 18.4799H8.40047C8.40047 19.671 7.43159 20.6399 6.24047 20.6399ZM1.96895 17.0399C2.15927 15.3436 3.09431 11.2799 7.68047 11.2799H9.84047V14.1599C9.84047 14.9541 10.4863 15.5999 11.2805 15.5999H12.7205C15.1027 15.5999 17.0405 13.6622 17.0405 11.2799V7.11472C18.4243 8.57584 19.2005 10.5052 19.2005 12.5526V12.6686C19.2005 13.4378 18.9009 14.1614 18.3571 14.7052L16.0224 17.0399H1.96895ZM18.4805 20.6399C17.2893 20.6399 16.3205 19.671 16.3205 18.4799H20.6405C20.6405 19.671 19.6716 20.6399 18.4805 20.6399Z" fill="black" fillOpacity="0.5"/>
</svg>
 