<svg width="32" height="32" viewBox="0 0 32 32" fill="none" xmlns="http://www.w3.org/2000/svg">
    <rect width="32" height="32" rx="6" fill="white"/>
    <path d="M15.2482 7C10.7027 7 7 10.7027 7 15.2482C7 19.7937 10.7027 23.5036 15.2482 23.5036C17.1897 23.5036 18.9753 22.8232 20.3866 21.6935L23.8223 25.1274C23.9956 25.2936 24.2272 25.3853 24.4674 25.3829C24.7076 25.3804 24.9372 25.284 25.1071 25.1143C25.2771 24.9446 25.3738 24.7151 25.3766 24.475C25.3794 24.2348 25.288 24.0031 25.1221 23.8295L21.6864 20.3938C22.817 18.9804 23.4982 17.192 23.4982 15.2482C23.4982 10.7027 19.7937 7 15.2482 7ZM15.2482 8.83336C18.8029 8.83336 21.6631 11.6935 21.6631 15.2482C21.6631 18.8029 18.8029 21.6703 15.2482 21.6703C11.6935 21.6703 8.83333 18.8029 8.83333 15.2482C8.83333 11.6935 11.6935 8.83336 15.2482 8.83336Z" fill="black"/>
    </svg>
     