<svg width="20" height="20" viewBox="0 0 20 20" fill="none" xmlns="http://www.w3.org/2000/svg">
<path d="M19.8284 0.171952C19.6626 0.00617153 19.414 -0.0448049 19.1965 0.0422261L0.36834 7.57338C0.152911 7.65955 0.00865304 7.86471 0.00037181 8.09662C-0.00787036 8.3285 0.121504 8.54338 0.330254 8.64463L7.75477 12.2454L11.3556 19.67C11.4538 19.8725 11.6589 20.0002 11.8827 20.0002C11.8896 20.0002 11.8966 20.0001 11.9036 19.9998C12.1355 19.9916 12.3407 19.8473 12.4268 19.6319L19.9581 0.803904C20.0451 0.586249 19.9941 0.337694 19.8284 0.171952ZM2.0349 8.16893L16.9812 2.19046L8.07383 11.0978L2.0349 8.16893ZM11.8313 17.9654L8.90246 11.9263L17.8099 3.01906L11.8313 17.9654Z" fill="#CF2D39"/>
</svg>
 