<svg width="24" height="24" viewBox="0 0 24 24" fill="none" xmlns="http://www.w3.org/2000/svg">
<g clip-path="url(#clip0_934_30229)">
<path d="M23.1812 8.06325L17.7485 2.63049C17.3002 2.18222 16.8455 1.95493 16.3971 1.95493C15.7815 1.95493 15.0625 2.42321 15.0625 3.74297V5.59257C11.1154 5.7646 7.42941 7.38333 4.61803 10.1946C1.64034 13.172 0.000328134 17.1309 8.51259e-09 21.3418C-4.68665e-05 21.6443 0.1935 21.913 0.480469 22.0088C0.553688 22.0332 0.628734 22.045 0.703031 22.045C0.919922 22.045 1.12987 21.9444 1.2653 21.7642C4.58484 17.3455 9.5827 14.7342 15.0625 14.528V16.3491C15.0625 17.6688 15.7814 18.1371 16.3971 18.1372H16.3971C16.8455 18.1372 17.3003 17.9099 17.7485 17.4616L23.1812 12.0288C23.7092 11.5009 24 10.7967 24 10.0461C24 9.29536 23.7092 8.59121 23.1812 8.06325ZM22.1869 11.0344L16.7541 16.4673C16.6499 16.5715 16.5636 16.6373 16.5 16.6773C16.4832 16.604 16.4687 16.4964 16.4687 16.3491V13.8117C16.4687 13.4234 16.1539 13.1086 15.7656 13.1086C12.6415 13.1086 9.6563 13.8244 6.89297 15.236C4.90922 16.2494 3.09581 17.6135 1.56014 19.2381C2.58173 12.3148 8.56308 6.98353 15.7656 6.98353C16.1539 6.98353 16.4687 6.66872 16.4687 6.28041V3.74297C16.4687 3.59564 16.4832 3.48807 16.4999 3.41485C16.5636 3.45483 16.6499 3.52064 16.7541 3.62485L22.1869 9.05766C22.4493 9.32002 22.5938 9.67102 22.5938 10.0461C22.5938 10.4211 22.4493 10.7721 22.1869 11.0344Z" fill="black"/>
</g>
<defs>
<clipPath id="clip0_934_30229">
<rect width="24" height="24" fill="white"/>
</clipPath>
</defs>
</svg>
 