<svg width="24" height="24" viewBox="0 0 24 24" fill="none" xmlns="http://www.w3.org/2000/svg">
<path d="M21.4815 21.5871L20.2081 5.8462C20.1729 5.41139 19.8099 5.07651 19.3736 5.07651H16.874V4.87449C16.874 2.18679 14.6872 0 11.9993 0C9.31126 0 7.12448 2.18679 7.12448 4.87478V5.0768H4.62486C4.1887 5.0768 3.82559 5.41169 3.79043 5.84649L2.51701 21.5871C2.46678 22.207 2.67945 22.8243 3.10084 23.2808C3.52253 23.7379 4.12084 24 4.74232 24H19.2562C19.878 24 20.476 23.7379 20.8977 23.2808C21.3191 22.824 21.5314 22.2067 21.4815 21.5871ZM8.79888 4.87478C8.79888 3.11021 10.2347 1.67441 11.9993 1.67441C13.7638 1.67441 15.1996 3.11021 15.1996 4.87478V5.0768H8.79888V4.87478ZM19.6667 22.1456C19.6048 22.2131 19.4691 22.3256 19.2562 22.3256H4.74232C4.52941 22.3256 4.39374 22.2131 4.3318 22.1456C4.26987 22.0786 4.16883 21.9343 4.18612 21.7222L5.39727 6.75097H7.12443V10.9013C7.12443 11.3637 7.49924 11.7385 7.96163 11.7385C8.42403 11.7385 8.79884 11.3637 8.79884 10.9013V6.75097H15.1996V10.9013C15.1996 11.3637 15.5744 11.7385 16.0368 11.7385C16.4992 11.7385 16.874 11.3637 16.874 10.9013V6.75097H18.6011L19.8123 21.7225C19.8297 21.9346 19.7284 22.0786 19.6667 22.1456Z" fill="black" fillOpacity="0.2"/>
</svg>
 