<svg width="24" height="24" viewBox="0 0 24 24" fill="none" xmlns="http://www.w3.org/2000/svg">
<g clip-path="url(#clip0_827_24487)">
<path d="M3.86429 9.27004C8.35023 7.32942 15.6498 7.32942 20.1357 9.27004C20.2111 9.30234 20.2922 9.31904 20.3741 9.31926C20.5725 9.31926 20.758 9.22126 20.8698 9.05735C20.9817 8.89343 21.0049 8.68491 20.9327 8.50012C19.4952 4.82146 15.9495 2.40007 11.9999 2.40007C8.0503 2.40007 4.50458 4.82146 3.06734 8.50012C2.97879 8.72578 3.03483 8.98264 3.20907 9.15095C3.38331 9.31926 3.64193 9.36628 3.86429 9.27004ZM11.9999 3.6C14.9326 3.58923 17.6552 5.12007 19.17 7.63132C16.8457 6.92798 14.4283 6.58103 11.9999 6.60168C9.57169 6.58103 7.15426 6.92798 4.82999 7.63132C6.34479 5.12007 9.06742 3.58923 11.9999 3.6Z" fill="black"/>
<path d="M11.9999 0C5.37253 0 0 5.37253 0 11.9999C0 18.6273 5.37253 24.0001 11.9999 24.0001C18.6273 24.0001 24.0001 18.6273 24.0001 11.9999C23.9926 5.37561 18.6245 0.00747067 11.9999 0V0ZM11.9999 22.7999C6.03523 22.7999 1.19993 17.9646 1.19993 11.9999C1.19993 6.03523 6.03523 1.19993 11.9999 1.19993C17.9646 1.19993 22.7999 6.03523 22.7999 11.9999C22.7931 17.9618 17.9618 22.7931 11.9999 22.7999Z" fill="black"/>
<path d="M21.3866 12.232C21.26 12.1093 21.0864 12.0476 20.9109 12.0628C16.2046 12.5016 13.6289 15.4294 13.2549 20.765C13.2431 20.9312 13.3009 21.0946 13.4142 21.2164C13.5278 21.3381 13.6867 21.4073 13.8533 21.4073C13.8946 21.4073 13.9359 21.4029 13.9763 21.3943C18.154 20.5022 21.2438 16.9635 21.5648 12.7037C21.5777 12.5279 21.5127 12.3554 21.3866 12.232ZM14.5329 20.0092C15.018 16.104 16.9066 13.9173 20.2816 13.3534C19.765 16.4744 17.5455 19.0441 14.5329 20.0092Z" fill="black"/>
<path d="M3.08917 12.0628C2.91383 12.0498 2.74113 12.1111 2.61324 12.232C2.48734 12.3554 2.42208 12.5279 2.43527 12.7037C2.75607 16.9635 5.84608 20.5022 10.0237 21.3943C10.0642 21.4029 10.1053 21.4073 10.1466 21.4073C10.3131 21.4073 10.4722 21.3381 10.5856 21.2164C10.6992 21.0946 10.7568 20.9312 10.7449 20.765C10.3711 15.4294 7.79528 12.5016 3.08917 12.0628ZM3.71847 13.3534C7.09347 13.9173 8.9818 16.104 9.46696 20.0092C6.45429 19.0441 4.23505 16.4744 3.71847 13.3534Z" fill="black"/>
<path d="M14.4 11.9999C14.4 10.6745 13.3256 9.60007 12 9.60007C10.6746 9.60007 9.6001 10.6745 9.6001 11.9999C9.6001 13.3255 10.6746 14.4 12 14.4C13.3249 14.3987 14.3987 13.3249 14.4 11.9999ZM12 13.2001C11.3373 13.2001 10.8 12.6628 10.8 11.9999C10.8 11.3372 11.3373 10.8 12 10.8C12.6629 10.8 13.2001 11.3372 13.2001 11.9999C13.1992 12.6624 12.6624 13.1992 12 13.2001Z" fill="black"/>
</g>
<defs>
<clipPath id="clip0_827_24487">
<rect width="24" height="24" fill="white"/>
</clipPath>
</defs>
</svg>
 