<svg width="24" height="24" viewBox="0 0 24 24" fill="none" xmlns="http://www.w3.org/2000/svg">
<path d="M21.0749 9.525L14.4749 2.925C14.1749 2.625 13.7249 2.625 13.4249 2.925L11.0249 5.325C10.6499 5.7 10.7999 6.15 11.0249 6.375L11.5499 6.9L9.2999 9.15C8.1749 8.925 5.0999 8.4 3.4499 10.05C3.1499 10.35 3.1499 10.8 3.4499 11.1L7.7249 15.375L2.9999 20.1C2.6999 20.4 2.6999 20.85 2.9999 21.15C3.2999 21.45 3.8249 21.375 4.0499 21.15L8.7749 16.425L13.0499 20.7C13.4999 21.075 13.9499 20.925 14.0999 20.7C15.7499 19.05 15.2249 15.975 14.9999 14.85L17.2499 12.6L17.7749 13.125C18.0749 13.425 18.5249 13.425 18.8249 13.125L21.2249 10.725C21.3749 10.275 21.3749 9.825 21.0749 9.525ZM18.1499 11.4L17.6249 10.875C17.3249 10.575 16.8749 10.575 16.5749 10.875L13.4999 14.025C13.2749 14.25 13.1999 14.475 13.2749 14.775C13.4999 15.6 13.8749 17.625 13.2749 18.975L5.0249 10.725C6.2999 10.125 8.3999 10.5 9.2249 10.725C9.4499 10.8 9.7499 10.725 9.9749 10.5L13.0499 7.425C13.4999 6.975 13.2749 6.6 13.0499 6.375L12.5249 5.85L13.9499 4.5L19.4999 10.05L18.1499 11.4Z" fill="black"/>
</svg>
 