<svg width="30" height="30" viewBox="0 0 30 30" fill="none" xmlns="http://www.w3.org/2000/svg">
<path d="M22.266 10.3534C21.8608 8.73373 20.9261 7.29586 19.6104 6.26811C18.2946 5.24036 16.6733 4.68163 15.0037 4.68067C13.3341 4.6797 11.7121 5.23653 10.3951 6.26276C9.07819 7.28898 8.14184 8.72576 7.73477 10.3449C5.81461 10.5252 4.03766 11.4381 2.77304 12.8942C1.50841 14.3503 0.853315 16.2376 0.943816 18.1641C1.03432 20.0906 1.86346 21.9081 3.25902 23.2392C4.65459 24.5704 6.50929 25.3127 8.43789 25.3121H11.2504C11.499 25.3121 11.7375 25.2134 11.9133 25.0375C12.0891 24.8617 12.1879 24.6233 12.1879 24.3746C12.1879 24.126 12.0891 23.8875 11.9133 23.7117C11.7375 23.5359 11.499 23.4371 11.2504 23.4371H8.43789C7.6992 23.4393 6.96733 23.2959 6.28405 23.0152C5.60077 22.7345 4.97946 22.322 4.45561 21.8012C3.39764 20.7494 2.80084 19.3204 2.79648 17.8285C2.79213 16.3367 3.38059 14.9042 4.43241 13.8463C5.48422 12.7883 6.91324 12.1915 8.40508 12.1871C8.64563 12.2052 8.88434 12.1334 9.07489 11.9854C9.26544 11.8375 9.39425 11.624 9.43633 11.3865C9.62723 10.0478 10.2947 8.82294 11.3161 7.93682C12.3376 7.05071 13.6444 6.56285 14.9966 6.56285C16.3489 6.56285 17.6557 7.05071 18.6772 7.93682C19.6986 8.82294 20.3661 10.0478 20.557 11.3865C20.606 11.6158 20.7331 11.821 20.9165 11.967C21.1 12.113 21.3284 12.1908 21.5629 12.1871C23.0547 12.1871 24.4855 12.7798 25.5404 13.8347C26.5953 14.8896 27.1879 16.3203 27.1879 17.8121C27.1879 19.304 26.5953 20.7347 25.5404 21.7896C24.4855 22.8445 23.0547 23.4371 21.5629 23.4371H18.7504C18.5017 23.4371 18.2633 23.5359 18.0875 23.7117C17.9117 23.8875 17.8129 24.126 17.8129 24.3746C17.8129 24.6233 17.9117 24.8617 18.0875 25.0375C18.2633 25.2134 18.5017 25.3121 18.7504 25.3121H21.5629C23.4774 25.2921 25.3117 24.5406 26.69 23.2118C28.0683 21.8829 28.8862 20.0772 28.9761 18.1647C29.066 16.2522 28.4211 14.3778 27.1735 12.9254C25.926 11.4731 24.1702 10.5529 22.266 10.3534Z" fill="#CF2D39"/>
<path d="M19.0246 18.4754C19.2015 18.6461 19.4383 18.7406 19.6841 18.7385C19.9299 18.7364 20.165 18.6378 20.3388 18.4639C20.5127 18.2901 20.6113 18.055 20.6134 17.8092C20.6155 17.5634 20.521 17.3265 20.3503 17.1497L15.6628 12.4622C15.487 12.2865 15.2485 12.1877 15 12.1877C14.7514 12.1877 14.5129 12.2865 14.3371 12.4622L9.64964 17.1497C9.47887 17.3265 9.38437 17.5634 9.38651 17.8092C9.38865 18.055 9.48724 18.2901 9.66106 18.4639C9.83488 18.6378 10.07 18.7364 10.3158 18.7385C10.5616 18.7406 10.7985 18.6461 10.9753 18.4754L14.0625 15.3882V27.1875C14.0625 27.4362 14.1612 27.6746 14.337 27.8505C14.5129 28.0263 14.7513 28.125 15 28.125C15.2486 28.125 15.4871 28.0263 15.6629 27.8505C15.8387 27.6746 15.9375 27.4362 15.9375 27.1875V15.3882L19.0246 18.4754Z" fill="#CF2D39"/>
</svg>
 