<svg width="37" height="37" viewBox="0 0 37 37" fill="none" xmlns="http://www.w3.org/2000/svg">
<circle cx="18.5" cy="18.5" r="18.5" fill="white"/>
<path fill-rule="evenodd" clipRule="evenodd" d="M18.5109 35.5204C18.4628 35.5204 18.4366 35.5204 18.3885 35.4942C10.6568 33.322 5.65234 28.2432 5.65234 22.6094V10.2054C5.65234 9.9781 5.80532 9.80327 6.03259 9.77705C7.5973 9.54977 9.79576 8.89417 12.0947 7.95884C14.8002 6.87054 17.1997 5.5331 18.2093 4.57155C18.3885 4.39672 18.6639 4.39672 18.8169 4.57155C19.8265 5.55933 22.226 6.87054 24.9052 7.95884C27.2042 8.89417 29.4027 9.57599 30.9674 9.77705C31.1947 9.80327 31.3476 10.0043 31.3476 10.2054V22.6094C31.3476 28.2432 26.3694 33.2957 18.6377 35.4942C18.5896 35.5204 18.5634 35.5204 18.5109 35.5204Z" fill="#5FD3AE"/>
<path fill-rule="evenodd" clipRule="evenodd" d="M18.511 32.4649C18.463 32.4649 18.4367 32.4649 18.3887 32.4387C12.1735 30.6948 8.17871 26.6257 8.17871 22.0801V12.1761C8.17871 11.9489 8.33169 11.774 8.55896 11.7478C9.76964 11.5948 11.5136 11.066 13.358 10.3055C15.5084 9.44883 17.4009 8.38675 18.2095 7.63062C18.3887 7.45142 18.664 7.47764 18.817 7.63062C19.5993 8.38675 21.4962 9.4226 23.6422 10.3055C25.4867 11.066 27.2306 11.5948 28.4412 11.7478C28.6685 11.774 28.8215 11.9751 28.8215 12.1761V22.0801C28.8215 26.6257 24.8311 30.6685 18.6159 32.4387C18.5897 32.4649 18.5635 32.4649 18.511 32.4649Z" fill="#A1E5CF"/>
</svg>
