<svg width="16" height="16" viewBox="0 0 20 18" fill="none" xmlns="http://www.w3.org/2000/svg">
<path d="M18.009 3.53583H13.6995V1.7993C13.6995 0.972453 13.0268 0.299805 12.1999 0.299805H7.80001C6.97316 0.299805 6.30047 0.972453 6.30047 1.7993V3.53583H1.99099C0.893133 3.53583 0 4.42901 0 5.52683V15.7101C0 16.808 0.893133 17.7011 1.99099 17.7011H18.009C19.1068 17.7011 20 16.808 20 15.7101V5.52683C20 4.42901 19.1068 3.53583 18.009 3.53583ZM7.5706 1.7993C7.5706 1.67281 7.67352 1.56993 7.80001 1.56993H12.1999C12.3264 1.56993 12.4294 1.67285 12.4294 1.7993V3.53583H7.5706V1.7993ZM1.27012 5.52683C1.27012 5.12932 1.59349 4.80596 1.99099 4.80596H18.009C18.4065 4.80596 18.7299 5.12932 18.7299 5.52683V6.46676C18.7299 7.34838 18.1387 8.13621 17.2923 8.38266L10.6501 10.3165C10.2248 10.4404 9.77521 10.4404 9.34984 10.3165L2.70774 8.38262C1.86128 8.13617 1.27012 7.34838 1.27012 6.46676V5.52683ZM18.009 16.431H1.99099C1.59353 16.431 1.27012 16.1077 1.27012 15.7102V9.05261C1.59015 9.29996 1.95495 9.48631 2.35266 9.60213C9.68995 11.7384 9.31284 11.6796 9.99998 11.6796C10.6962 11.6796 10.3014 11.7409 17.6473 9.60213C18.045 9.48631 18.4098 9.29996 18.7298 9.05261V15.7101C18.7299 16.1076 18.4065 16.431 18.009 16.431Z" fill="#CF2D39"/>
</svg>
