<svg width="24" height="22" viewBox="0 0 24 22" fill="none" xmlns="http://www.w3.org/2000/svg">
<path d="M21.6108 4.44232H16.4394V2.35848C16.4394 1.36626 15.6322 0.559082 14.6399 0.559082H9.36001C8.36779 0.559082 7.56057 1.36626 7.56057 2.35848V4.44232H2.38919C1.07176 4.44232 0 5.51412 0 6.83151V19.0515C0 20.3689 1.07176 21.4406 2.38919 21.4406H21.6108C22.9282 21.4406 24 20.3689 24 19.0515V6.83151C24 5.51412 22.9282 4.44232 21.6108 4.44232ZM9.08471 2.35848C9.08471 2.20668 9.20822 2.08323 9.36001 2.08323H14.6399C14.7917 2.08323 14.9152 2.20673 14.9152 2.35848V4.44232H9.08471V2.35848ZM1.52415 6.83151C1.52415 6.3545 1.91218 5.96646 2.38919 5.96646H21.6108C22.0878 5.96646 22.4759 6.3545 22.4759 6.83151V7.95942C22.4759 9.01737 21.7665 9.96277 20.7507 10.2585L12.7801 12.5792C12.2698 12.7278 11.7302 12.7278 11.2198 12.5792L3.24929 10.2585C2.23354 9.96272 1.52415 9.01737 1.52415 7.95942V6.83151ZM21.6108 19.9165H2.38919C1.91223 19.9165 1.52415 19.5285 1.52415 19.0515V11.0624C1.90818 11.3593 2.34595 11.5829 2.82319 11.7219C11.6279 14.2854 11.1754 14.2149 12 14.2149C12.8354 14.2149 12.3617 14.2884 21.1768 11.7219C21.6541 11.5829 22.0918 11.3593 22.4758 11.0624V19.0515C22.4759 19.5285 22.0878 19.9165 21.6108 19.9165Z" fill="black"/>
</svg>
 