<svg width="98" height="82" viewBox="0 0 98 82" fill="none" xmlns="http://www.w3.org/2000/svg">
<rect width="98" height="82" rx="19" fill="#EDF3F3"/>
<g clip-path="url(#clip0_1982_16963)">
<path d="M60.2126 32.083H54.1793V29.3554C54.1793 28.0566 53.2375 27 52.0799 27H45.92C44.7624 27 43.8207 28.0566 43.8207 29.3554V32.083H37.7874C36.2504 32.083 35 33.486 35 35.2104V51.206C35 52.9304 36.2504 54.3333 37.7874 54.3333H60.2126C61.7496 54.3333 63 52.9304 63 51.206V35.2104C63 33.486 61.7496 32.083 60.2126 32.083ZM45.5988 29.3554C45.5988 29.1567 45.7429 28.9951 45.92 28.9951H52.0799C52.257 28.9951 52.4011 29.1567 52.4011 29.3554V32.083H45.5988V29.3554ZM36.7782 35.2104C36.7782 34.586 37.2309 34.0781 37.7874 34.0781H60.2126C60.7691 34.0781 61.2218 34.586 61.2218 35.2104V36.6868C61.2218 38.0717 60.3942 39.3092 59.2092 39.6963L49.9102 42.7339C49.3148 42.9285 48.6853 42.9285 48.0898 42.7339L38.7908 39.6962C37.6058 39.3091 36.7782 38.0717 36.7782 36.6868V35.2104ZM60.2126 52.3383H37.7874C37.2309 52.3383 36.7782 51.8304 36.7782 51.2061V40.7486C37.2262 41.1371 37.7369 41.4298 38.2937 41.6118C48.5659 44.9673 48.038 44.875 49 44.875C49.9747 44.875 49.422 44.9713 59.7062 41.6118C60.2631 41.4298 60.7738 41.1371 61.2218 40.7486V51.206C61.2218 51.8303 60.7691 52.3383 60.2126 52.3383Z" fill="black"/>
</g>
<defs>
<clipPath id="clip0_1982_16963">
<rect width="28" height="28" fill="white" transform="translate(35 27)"/>
</clipPath>
</defs>
</svg>
